<svg width="49" height="48" viewBox="0 0 49 48" fill="none" xmlns="http://www.w3.org/2000/svg">
<path d="M47 33.8476C47 37.5143 43.8643 40.5 40.0134 40.5H2V14.1524C2 10.4857 5.1357 7.5 8.98655 7.5H47V33.8476Z" fill="white"/>
<path d="M37.1803 9.72643C34.4297 9.72643 32.1742 11.8479 32.1742 14.4931V19.4431H39.2433C39.4083 19.4431 39.6009 19.4431 39.7384 19.4693C41.3338 19.5479 42.5165 20.3336 42.5165 21.6955C42.5165 22.7693 41.7189 23.686 40.2335 23.8693V23.9217C41.8564 24.0264 43.0942 24.8907 43.0942 26.2264C43.0942 27.6669 41.7189 28.6098 39.9035 28.6098H32.1467V38.3002H39.4909C42.2415 38.3002 44.497 36.1788 44.497 33.5336V9.72643H37.1803Z" fill="url(#paint0_linear_4976_120597)"/>
<path d="M34.6223 27.0907H37.5105C37.5517 27.0907 37.6205 27.0842 37.6892 27.0776C37.758 27.0711 37.8268 27.0645 37.868 27.0645C38.4182 26.9598 38.8858 26.4883 38.8858 25.8336C38.8858 25.205 38.4182 24.7336 37.868 24.6026C37.7855 24.5764 37.6205 24.5764 37.5105 24.5764H34.6223V27.0907Z" fill="url(#paint1_linear_4976_120597)"/>
<path d="M37.5105 20.8834C38.0606 20.962 38.5282 21.3811 38.5282 22.0096C38.5282 22.6382 38.0606 23.0572 37.5105 23.1358C37.483 23.162 37.3179 23.162 37.2354 23.162H34.6223V20.8572H37.2354C37.2808 20.8572 37.3429 20.8652 37.3987 20.8723C37.4443 20.8781 37.4857 20.8834 37.5105 20.8834Z" fill="url(#paint2_linear_4976_120597)"/>
<path d="M9.5092 9.72643C6.75859 9.72643 4.50309 11.8479 4.50309 14.4931V26.2526C5.9059 26.9074 7.36373 27.3264 8.82155 27.3264C10.5544 27.3264 11.4896 26.3312 11.4896 24.9693V19.4169H15.7806V24.9431C15.7806 27.0907 14.3778 28.8455 9.61923 28.8455C6.73109 28.8455 4.47559 28.2431 4.47559 28.2431V38.2741H11.8197C14.5703 38.2741 16.8258 36.1526 16.8258 33.5074V9.72643H9.5092Z" fill="url(#paint3_linear_4976_120597)"/>
<path d="M23.3447 9.72643C20.5941 9.72643 18.3386 11.8479 18.3386 14.4931V20.7264C19.6039 19.705 21.8044 19.0502 25.3527 19.2074C27.2506 19.286 29.2861 19.7836 29.2861 19.7836V21.8002C28.2683 21.3026 27.0581 20.8574 25.4902 20.7526C22.7946 20.5693 21.1718 21.8264 21.1718 24.0264C21.1718 26.2526 22.7946 27.5098 25.4902 27.3002C27.0581 27.1955 28.2683 26.7241 29.2861 26.2526V28.2693C29.2861 28.2693 27.2781 28.7669 25.3527 28.8455C21.8044 29.0026 19.6039 28.3479 18.3386 27.3264V38.3264H25.6828C28.4334 38.3264 30.6889 36.205 30.6889 33.5598V9.72643H23.3447Z" fill="url(#paint4_linear_4976_120597)"/>
<defs>
<linearGradient id="paint0_linear_4976_120597" x1="32.1688" y1="22.0057" x2="44.5298" y2="22.0057" gradientUnits="userSpaceOnUse">
<stop stop-color="#007940"/>
<stop offset="0.2285" stop-color="#00873F"/>
<stop offset="0.7433" stop-color="#40A737"/>
<stop offset="1" stop-color="#5CB531"/>
</linearGradient>
<linearGradient id="paint1_linear_4976_120597" x1="32.1688" y1="22.0057" x2="44.5298" y2="22.0057" gradientUnits="userSpaceOnUse">
<stop stop-color="#007940"/>
<stop offset="0.2285" stop-color="#00873F"/>
<stop offset="0.7433" stop-color="#40A737"/>
<stop offset="1" stop-color="#5CB531"/>
</linearGradient>
<linearGradient id="paint2_linear_4976_120597" x1="32.1688" y1="22.0057" x2="44.5298" y2="22.0057" gradientUnits="userSpaceOnUse">
<stop stop-color="#007940"/>
<stop offset="0.2285" stop-color="#00873F"/>
<stop offset="0.7433" stop-color="#40A737"/>
<stop offset="1" stop-color="#5CB531"/>
</linearGradient>
<linearGradient id="paint3_linear_4976_120597" x1="4.49684" y1="24.0014" x2="17.049" y2="24.0014" gradientUnits="userSpaceOnUse">
<stop stop-color="#1F286F"/>
<stop offset="0.4751" stop-color="#004E94"/>
<stop offset="0.8261" stop-color="#0066B1"/>
<stop offset="1" stop-color="#006FBC"/>
</linearGradient>
<linearGradient id="paint4_linear_4976_120597" x1="18.2671" y1="24.0014" x2="30.4578" y2="24.0014" gradientUnits="userSpaceOnUse">
<stop stop-color="#6C2C2F"/>
<stop offset="0.1735" stop-color="#882730"/>
<stop offset="0.5731" stop-color="#BE1833"/>
<stop offset="0.8585" stop-color="#DC0436"/>
<stop offset="1" stop-color="#E60039"/>
</linearGradient>
</defs>
</svg>
