<svg width="58" height="40" viewBox="0 0 58 40" fill="none" xmlns="http://www.w3.org/2000/svg">
<rect x="1" y="0.5" width="56" height="39" rx="3.5" fill="white"/>
<path fill-rule="evenodd" clip-rule="evenodd" d="M18.5225 26.4304H15.0694L12.48 16.3206C12.3571 15.8556 12.0962 15.4444 11.7123 15.2507C10.7543 14.7637 9.69871 14.3762 8.54712 14.1807V13.7915H14.1098C14.8775 13.7915 15.4533 14.3762 15.5493 15.0552L16.8928 22.3477L20.3442 13.7915H23.7013L18.5225 26.4304ZM25.6207 26.4304H22.3595L25.0449 13.7915H28.306L25.6207 26.4304ZM32.5252 17.2929C32.6211 16.6121 33.1969 16.2229 33.8687 16.2229C34.9243 16.1252 36.0742 16.3206 37.0339 16.8059L37.6097 14.0847C36.65 13.6955 35.5944 13.5 34.6364 13.5C31.4712 13.5 29.168 15.2507 29.168 17.6804C29.168 19.5288 30.7995 20.4993 31.9511 21.084C33.1969 21.667 33.6768 22.0563 33.5808 22.6392C33.5808 23.5137 32.6211 23.903 31.6632 23.903C30.5116 23.903 29.36 23.6115 28.306 23.1245L27.7302 25.8474C28.8818 26.3327 30.1277 26.5281 31.2793 26.5281C34.8284 26.6242 37.0339 24.8752 37.0339 22.25C37.0339 18.9441 32.5252 18.7504 32.5252 17.2929ZM48.4471 26.4304L45.8577 13.7915H43.0764C42.5006 13.7915 41.9248 14.1807 41.7329 14.7637L36.9379 26.4304H40.2951L40.9651 24.5837H45.09L45.4739 26.4304H48.4471ZM43.5562 17.1951L44.5142 21.9585H41.8288L43.5562 17.1951Z" fill="#172B85"/>
<rect x="1" y="0.5" width="56" height="39" rx="3.5" stroke="#F2F4F7"/>
</svg>
