<svg width="232" height="182" viewBox="0 0 232 182" fill="none" xmlns="http://www.w3.org/2000/svg">
<path d="M102.819 81.3347C106.194 97.4642 116.804 119.97 138.615 134.281C159.746 149.234 184.932 149.999 199.9 142.791C215.486 135.795 220.855 120.826 216.61 109.185C212.333 97.0092 202.431 88.7366 193.026 83.4089C183.245 78.0023 173.961 75.5398 162.232 73.1684C150.814 70.8703 138.754 67.2637 129.208 62.2502C119.522 57.6153 112.352 51.5729 107.492 53.1569C103.087 54.4563 99.3353 64.7078 102.819 81.3347Z" fill="#DCE6FD"/>
<path d="M126.678 104.049C124.351 87.7367 115.215 64.596 94.3729 48.9131C74.2504 32.6326 49.1662 30.2508 33.764 36.4813C17.7587 42.4618 11.4354 57.0539 14.9199 68.9434C18.4025 81.3692 27.7507 90.2605 36.7919 96.1815C46.204 102.205 55.309 105.259 66.8608 108.38C78.1069 111.407 89.9098 115.781 99.1127 121.398C108.479 126.645 115.245 133.136 120.197 131.867C124.676 130.854 129.081 120.866 126.678 104.049Z" fill="#DCE6FD"/>
<path d="M131.687 137.344H101.56V152.872H131.687V137.344Z" fill="#95B5FA"/>
<path opacity="0.3" d="M131.687 147.421L101.56 144.076V137.344H131.687V147.421Z" fill="#203B73"/>
<path d="M174.808 150.147H57.6118C55.1438 150.147 53.1426 152.144 53.1426 154.607H179.278C179.277 152.144 177.277 150.147 174.808 150.147Z" fill="#C7DBFF"/>
<path d="M205.319 34.2355V133.482C205.319 137.528 202.028 140.813 197.974 140.813H40.4243C36.9927 140.813 34.1089 138.456 33.3034 135.275C33.1569 134.699 33.0815 134.1 33.0815 133.482V34.2355C33.0815 30.186 36.3733 26.9045 40.4237 26.9045H197.973C202.028 26.9045 205.319 30.186 205.319 34.2355Z" fill="#729DF8"/>
<path d="M195.179 31.0771H43.2209C39.9298 31.0771 37.2617 33.7398 37.2617 37.0243V130.691C37.2617 133.976 39.9298 136.638 43.2209 136.638H195.179C198.47 136.638 201.138 133.976 201.138 130.691V37.0243C201.138 33.7398 198.47 31.0771 195.179 31.0771Z" fill="#E7F0FE"/>
<path d="M195.179 31.0771H43.2209C39.9298 31.0771 37.2617 33.7398 37.2617 37.0243V130.691C37.2617 133.976 39.9298 136.638 43.2209 136.638H195.179C198.47 136.638 201.138 133.976 201.138 130.691V37.0243C201.138 33.7398 198.47 31.0771 195.179 31.0771Z" fill="#E7F0FE"/>
<path d="M195.179 34.6479H128.413V133.067H195.179C196.492 133.067 197.56 132.001 197.56 130.691V37.0243C197.56 35.7139 196.491 34.6479 195.179 34.6479Z" fill="white"/>
<path d="M36.136 155.096H202.265C202.719 155.096 203.088 154.728 203.088 154.275C203.088 153.822 202.719 153.454 202.265 153.454H36.136C35.6819 153.454 35.3135 153.822 35.3135 154.275C35.3135 154.729 35.6813 155.096 36.136 155.096ZM143.203 52.2971C140.88 52.2971 138.997 54.176 138.997 56.4946C138.997 58.8133 140.88 60.6922 143.203 60.6922C145.527 60.6922 147.409 58.8133 147.409 56.4946C147.409 54.1766 145.527 52.2971 143.203 52.2971ZM143.203 60.0024C141.262 60.0024 139.685 58.4329 139.685 56.4953C139.685 54.5576 141.262 52.9881 143.203 52.9881C145.145 52.9881 146.717 54.5576 146.717 56.4953C146.717 58.4329 145.145 60.0024 143.203 60.0024ZM163.363 53.2714H152.296C152.023 53.2714 151.771 53.4571 151.727 53.7252C151.671 54.0668 151.934 54.3622 152.266 54.3622H163.363C163.665 54.3622 163.909 54.1177 163.909 53.8168C163.909 53.5159 163.664 53.2714 163.363 53.2714ZM184.499 53.2714H165.199C164.897 53.2714 164.652 53.5159 164.652 53.8168C164.652 54.1183 164.897 54.3622 165.199 54.3622H184.528C184.86 54.3622 185.123 54.0668 185.067 53.7252C185.023 53.4571 184.771 53.2714 184.499 53.2714ZM168.134 55.9493H152.296C152.024 55.9493 151.772 56.1349 151.728 56.403C151.672 56.7446 151.935 57.04 152.267 57.04H168.134C168.436 57.04 168.681 56.7956 168.681 56.4946C168.68 56.1937 168.435 55.9493 168.134 55.9493ZM168.134 58.6277H152.296C152.024 58.6277 151.772 58.8133 151.728 59.0815C151.672 59.423 151.935 59.7191 152.267 59.7191H168.134C168.436 59.7191 168.681 59.4746 168.681 59.1737C168.68 58.8716 168.435 58.6277 168.134 58.6277ZM184.499 55.9493H169.969C169.667 55.9493 169.422 56.1937 169.422 56.4946C169.422 56.7962 169.667 57.04 169.969 57.04H184.527C184.859 57.04 185.122 56.7446 185.067 56.403C185.023 56.1355 184.771 55.9493 184.499 55.9493Z" fill="#95B5FA"/>
<path d="M143.142 58.5895C143.074 58.5895 143.006 58.5828 142.939 58.5689C142.674 58.5143 142.442 58.3559 142.296 58.129L140.807 55.8292C140.505 55.3626 140.639 54.7396 141.107 54.4381C141.575 54.1353 142.199 54.2706 142.502 54.7372L143.434 56.178L148.248 52.962C148.71 52.6514 149.336 52.7758 149.646 53.2387C149.956 53.6997 149.832 54.3246 149.369 54.634L143.704 58.419C143.536 58.5312 143.341 58.5895 143.142 58.5895Z" fill="#729DF8"/>
<path d="M176.662 70.7027C176.662 73.0213 178.545 74.9002 180.868 74.9002C183.192 74.9002 185.075 73.0213 185.075 70.7027C185.075 68.384 183.192 66.5051 180.868 66.5051C178.545 66.5051 176.662 68.384 176.662 70.7027ZM177.354 70.7027C177.354 68.765 178.927 67.1955 180.868 67.1955C182.81 67.1955 184.387 68.765 184.387 70.7027C184.387 72.6404 182.81 74.2098 180.868 74.2098C178.927 74.2098 177.354 72.6404 177.354 70.7027ZM160.709 67.4794H171.776C172.049 67.4794 172.301 67.6651 172.345 67.9332C172.401 68.2748 172.137 68.5702 171.805 68.5702H160.709C160.407 68.5702 160.162 68.3257 160.162 68.0248C160.162 67.7233 160.407 67.4794 160.709 67.4794ZM139.573 67.4794H158.873C159.175 67.4794 159.42 67.7239 159.42 68.0248C159.42 68.3263 159.175 68.5702 158.873 68.5702H139.544C139.212 68.5702 138.949 68.2748 139.005 67.9332C139.048 67.6651 139.301 67.4794 139.573 67.4794ZM155.938 70.1573H171.776C172.048 70.1573 172.3 70.3429 172.344 70.6111C172.4 70.9526 172.137 71.2481 171.805 71.2481H155.938C155.635 71.2481 155.391 71.0036 155.391 70.7027C155.392 70.4018 155.637 70.1573 155.938 70.1573ZM155.938 72.8351H171.776C172.048 72.8351 172.3 73.0207 172.344 73.2889C172.4 73.6304 172.137 73.9265 171.805 73.9265H155.938C155.635 73.9265 155.391 73.682 155.391 73.3811C155.392 73.0796 155.637 72.8351 155.938 72.8351ZM139.574 70.1573H154.103C154.404 70.1573 154.649 70.4018 154.649 70.7027C154.649 71.0042 154.404 71.2481 154.103 71.2481H139.544C139.212 71.2481 138.949 70.9526 139.005 70.6111C139.048 70.3429 139.301 70.1573 139.574 70.1573Z" fill="#95B5FA"/>
<path d="M181.337 72.3026C181.269 72.3026 181.201 72.2959 181.134 72.282C180.869 72.2274 180.637 72.069 180.49 71.8422L179.002 69.5423C178.7 69.0758 178.834 68.4527 179.302 68.1512C179.77 67.8485 180.394 67.9838 180.697 68.4503L181.628 69.8911L186.442 66.6752C186.905 66.3646 187.531 66.4889 187.841 66.9518C188.151 67.4129 188.027 68.0377 187.564 68.3471L181.898 72.1321C181.731 72.2444 181.535 72.3026 181.337 72.3026Z" fill="#95B5FA"/>
<path d="M173.052 122.408C173.052 122.408 170.494 129.068 168.342 132.91C172.1 132.91 174.95 132.91 174.95 132.91V124.41L173.052 122.408Z" fill="#FECECC"/>
<path d="M181.054 112.71C181.054 112.71 175.023 116.903 172.4 122.35C172.4 122.35 176.004 129.333 178.155 128.209C181.297 126.567 181.054 112.71 181.054 112.71Z" fill="#95B5FA"/>
<path d="M192.809 132.91C192.706 124.085 190.061 112.55 182.975 112.389C177.31 112.26 173.716 123.696 173.051 132.91H192.809Z" fill="#5965E1"/>
<path d="M178.363 118.024C178.336 118.024 178.31 118.011 178.295 117.986C178.271 117.948 178.284 117.9 178.321 117.877C178.698 117.648 178.603 117.272 178.599 117.257C178.587 117.214 178.612 117.17 178.654 117.159C178.696 117.147 178.74 117.172 178.752 117.214C178.8 117.388 178.789 117.778 178.405 118.012C178.391 118.02 178.377 118.024 178.363 118.024ZM180.284 121.701C180.257 121.701 180.231 121.688 180.216 121.663C180.193 121.625 180.205 121.576 180.243 121.554C180.62 121.325 180.524 120.949 180.52 120.934C180.509 120.891 180.534 120.847 180.576 120.836C180.618 120.824 180.662 120.849 180.674 120.891C180.722 121.065 180.711 121.455 180.326 121.689C180.313 121.697 180.299 121.701 180.284 121.701ZM184.256 118.591C184.229 118.591 184.203 118.577 184.187 118.552C184.164 118.515 184.177 118.466 184.214 118.443C184.591 118.215 184.496 117.839 184.491 117.823C184.48 117.781 184.505 117.737 184.547 117.726C184.589 117.714 184.633 117.739 184.645 117.781C184.693 117.954 184.682 118.344 184.298 118.579C184.284 118.587 184.27 118.591 184.256 118.591ZM178.718 123.819C178.718 123.846 178.704 123.872 178.679 123.887C178.642 123.91 178.592 123.898 178.57 123.86C178.341 123.484 177.964 123.579 177.949 123.584C177.906 123.595 177.862 123.57 177.851 123.528C177.839 123.486 177.864 123.442 177.906 123.43C178.08 123.382 178.471 123.393 178.706 123.777C178.714 123.79 178.718 123.805 178.718 123.819ZM175.03 127.214C175.003 127.214 174.977 127.201 174.961 127.176C174.938 127.139 174.951 127.089 174.988 127.067C175.365 126.838 175.27 126.463 175.265 126.447C175.254 126.405 175.279 126.361 175.321 126.349C175.363 126.338 175.407 126.363 175.419 126.405C175.467 126.578 175.456 126.968 175.072 127.202C175.058 127.211 175.044 127.214 175.03 127.214ZM177.885 119.672C177.882 119.645 177.893 119.618 177.916 119.6C177.952 119.574 178.002 119.581 178.028 119.616C178.292 119.968 178.657 119.838 178.672 119.833C178.713 119.817 178.759 119.838 178.775 119.879C178.791 119.92 178.77 119.966 178.729 119.982C178.56 120.046 178.17 120.072 177.899 119.712C177.892 119.7 177.887 119.686 177.885 119.672ZM182.428 116.865C182.425 116.839 182.436 116.811 182.459 116.794C182.495 116.768 182.544 116.775 182.571 116.81C182.835 117.163 183.2 117.032 183.215 117.027C183.257 117.012 183.302 117.032 183.318 117.073C183.334 117.114 183.313 117.16 183.272 117.176C183.104 117.24 182.713 117.266 182.443 116.906C182.434 116.893 182.429 116.879 182.428 116.865ZM179.628 126.949C179.626 126.922 179.637 126.895 179.66 126.877C179.695 126.851 179.745 126.858 179.771 126.894C180.035 127.246 180.4 127.116 180.416 127.11C180.457 127.095 180.502 127.116 180.518 127.157C180.534 127.197 180.513 127.244 180.472 127.259C180.303 127.324 179.913 127.35 179.643 126.989C179.635 126.977 179.629 126.963 179.628 126.949ZM183.525 121.136C183.522 121.11 183.533 121.082 183.557 121.065C183.592 121.039 183.642 121.046 183.668 121.08C183.932 121.433 184.298 121.302 184.313 121.297C184.354 121.282 184.4 121.302 184.415 121.344C184.431 121.384 184.411 121.43 184.369 121.446C184.2 121.511 183.811 121.537 183.54 121.176C183.531 121.164 183.526 121.15 183.525 121.136ZM174.707 124.163C174.705 124.136 174.716 124.109 174.739 124.091C174.774 124.065 174.824 124.073 174.85 124.108C175.114 124.46 175.479 124.33 175.495 124.324C175.536 124.309 175.582 124.33 175.597 124.371C175.613 124.412 175.592 124.458 175.551 124.474C175.382 124.538 174.992 124.564 174.722 124.204C174.714 124.191 174.709 124.177 174.707 124.163ZM181.617 118.992C181.471 118.992 181.372 118.906 181.244 118.795C181.186 118.745 181.12 118.688 181.037 118.627C180.85 118.491 180.824 118.514 180.698 118.628C180.628 118.69 180.533 118.775 180.385 118.851C180.248 118.921 180.12 118.932 180.003 118.886C179.794 118.802 179.709 118.562 179.705 118.551C179.691 118.51 179.713 118.464 179.755 118.45C179.796 118.435 179.842 118.457 179.856 118.498C179.857 118.5 179.923 118.682 180.064 118.738C180.137 118.767 180.219 118.758 180.313 118.71C180.443 118.643 180.526 118.569 180.592 118.51C180.746 118.372 180.855 118.297 181.132 118.499C181.22 118.563 181.289 118.623 181.349 118.675C181.538 118.839 181.595 118.889 181.837 118.764C181.876 118.744 181.924 118.759 181.945 118.798C181.965 118.836 181.95 118.884 181.911 118.905C181.791 118.967 181.697 118.992 181.617 118.992ZM183.06 126.656C182.915 126.656 182.815 126.57 182.687 126.459C182.629 126.408 182.563 126.351 182.481 126.29C182.293 126.154 182.267 126.178 182.141 126.291C182.071 126.354 181.976 126.439 181.828 126.514C181.691 126.584 181.563 126.596 181.446 126.548C181.237 126.465 181.152 126.224 181.149 126.214C181.134 126.173 181.156 126.127 181.198 126.113C181.239 126.098 181.285 126.12 181.299 126.161C181.3 126.163 181.366 126.344 181.507 126.401C181.58 126.43 181.662 126.421 181.757 126.372C181.886 126.306 181.969 126.232 182.035 126.173C182.189 126.034 182.298 125.96 182.575 126.162C182.663 126.226 182.732 126.286 182.792 126.338C182.981 126.502 183.039 126.551 183.281 126.426C183.319 126.406 183.367 126.422 183.388 126.46C183.408 126.499 183.393 126.547 183.354 126.568C183.234 126.63 183.14 126.656 183.06 126.656ZM175.978 122.408C175.971 122.408 175.965 122.407 175.958 122.405C175.746 122.351 175.654 122.22 175.614 122.12C175.538 121.932 175.589 121.712 175.673 121.577C175.822 121.339 175.875 121.143 175.655 120.957C175.543 120.863 175.527 120.765 175.533 120.699C175.552 120.496 175.803 120.348 175.831 120.331C175.87 120.309 175.918 120.323 175.94 120.361C175.962 120.399 175.949 120.448 175.91 120.47C175.857 120.5 175.701 120.611 175.692 120.714C175.69 120.729 175.686 120.775 175.758 120.835C176.129 121.148 175.896 121.521 175.809 121.661C175.748 121.758 175.707 121.925 175.762 122.06C175.8 122.156 175.88 122.22 175.998 122.251C176.04 122.262 176.066 122.305 176.055 122.348C176.046 122.384 176.013 122.408 175.978 122.408ZM177.609 132.048C177.602 132.048 177.595 132.047 177.589 132.045C177.377 131.991 177.285 131.86 177.245 131.76C177.169 131.572 177.22 131.352 177.304 131.217C177.453 130.979 177.506 130.783 177.286 130.597C177.174 130.503 177.158 130.405 177.164 130.339C177.183 130.136 177.434 129.988 177.462 129.971C177.501 129.949 177.549 129.963 177.571 130.001C177.593 130.039 177.58 130.088 177.541 130.109C177.488 130.14 177.332 130.251 177.323 130.354C177.322 130.369 177.318 130.415 177.389 130.475C177.76 130.788 177.528 131.161 177.44 131.301C177.38 131.398 177.339 131.565 177.394 131.7C177.432 131.796 177.512 131.86 177.63 131.891C177.672 131.902 177.698 131.945 177.687 131.988C177.676 132.024 177.644 132.048 177.609 132.048ZM176.835 129.678C176.828 129.678 176.822 129.677 176.815 129.675C176.603 129.62 176.511 129.489 176.471 129.389C176.396 129.201 176.447 128.982 176.53 128.847C176.679 128.609 176.732 128.413 176.512 128.227C176.4 128.132 176.384 128.035 176.39 127.969C176.409 127.765 176.66 127.617 176.689 127.601C176.727 127.579 176.775 127.592 176.797 127.631C176.819 127.669 176.806 127.717 176.768 127.739C176.714 127.77 176.558 127.881 176.549 127.984C176.548 127.999 176.544 128.045 176.616 128.105C176.986 128.418 176.754 128.791 176.667 128.931C176.606 129.028 176.565 129.195 176.62 129.33C176.658 129.426 176.738 129.49 176.856 129.52C176.898 129.531 176.924 129.575 176.913 129.617C176.902 129.653 176.87 129.678 176.835 129.678ZM182.486 123.168C182.49 123.173 182.493 123.18 182.495 123.186C182.569 123.392 182.512 123.542 182.452 123.631C182.339 123.798 182.127 123.88 181.969 123.886C181.688 123.897 181.495 123.963 181.465 124.25C181.45 124.396 181.378 124.464 181.32 124.496C181.14 124.595 180.877 124.471 180.847 124.457C180.808 124.437 180.791 124.39 180.811 124.35C180.83 124.311 180.878 124.295 180.917 124.314C180.972 124.341 181.152 124.407 181.243 124.357C181.256 124.35 181.296 124.327 181.307 124.234C181.358 123.752 181.797 123.734 181.963 123.728C182.077 123.723 182.238 123.664 182.32 123.542C182.378 123.457 182.386 123.355 182.346 123.24C182.331 123.199 182.352 123.153 182.394 123.138C182.428 123.126 182.466 123.139 182.486 123.168ZM181.122 130.441C181.122 130.447 181.121 130.454 181.119 130.461C181.065 130.672 180.933 130.764 180.833 130.804C180.645 130.879 180.425 130.828 180.29 130.745C180.051 130.597 179.854 130.543 179.668 130.763C179.574 130.874 179.476 130.891 179.41 130.885C179.206 130.866 179.057 130.615 179.041 130.587C179.019 130.549 179.033 130.5 179.071 130.478C179.109 130.456 179.158 130.47 179.18 130.508C179.211 130.561 179.321 130.717 179.425 130.726C179.44 130.728 179.486 130.732 179.546 130.66C179.86 130.29 180.233 130.522 180.374 130.609C180.471 130.67 180.638 130.711 180.774 130.656C180.87 130.618 180.934 130.538 180.964 130.421C180.975 130.378 181.019 130.353 181.062 130.364C181.098 130.373 181.122 130.406 181.122 130.441ZM177.622 127.192C177.395 127.192 177.21 127.008 177.21 126.781C177.21 126.554 177.395 126.37 177.622 126.37C177.85 126.37 178.034 126.554 178.034 126.781C178.034 127.008 177.849 127.192 177.622 127.192ZM177.622 126.529C177.483 126.529 177.37 126.642 177.37 126.781C177.37 126.92 177.483 127.032 177.622 127.032C177.761 127.032 177.875 126.92 177.875 126.781C177.875 126.642 177.761 126.529 177.622 126.529ZM183.808 120.407C183.581 120.407 183.396 120.223 183.396 119.996C183.396 119.769 183.581 119.584 183.808 119.584C184.036 119.584 184.22 119.769 184.22 119.996C184.22 120.223 184.035 120.407 183.808 120.407ZM183.808 119.744C183.669 119.744 183.556 119.857 183.556 119.996C183.556 120.135 183.669 120.247 183.808 120.247C183.947 120.247 184.06 120.135 184.06 119.996C184.06 119.857 183.947 119.744 183.808 119.744ZM177.425 121.244C177.197 121.244 177.013 121.06 177.013 120.833C177.013 120.606 177.197 120.422 177.425 120.422C177.652 120.422 177.837 120.607 177.837 120.833C177.836 121.06 177.652 121.244 177.425 121.244ZM177.425 120.581C177.285 120.581 177.172 120.694 177.172 120.833C177.172 120.972 177.285 121.085 177.425 121.085C177.564 121.085 177.677 120.972 177.677 120.833C177.677 120.694 177.564 120.581 177.425 120.581ZM174.48 132.048C174.253 132.048 174.068 131.864 174.068 131.637C174.068 131.411 174.253 131.226 174.48 131.226C174.707 131.226 174.892 131.411 174.892 131.637C174.892 131.864 174.707 132.048 174.48 132.048ZM174.48 131.386C174.341 131.386 174.228 131.499 174.228 131.638C174.228 131.777 174.341 131.889 174.48 131.889C174.619 131.889 174.732 131.777 174.732 131.638C174.733 131.499 174.619 131.386 174.48 131.386ZM180.904 116.996C180.676 116.996 180.491 116.812 180.491 116.585C180.491 116.359 180.676 116.174 180.904 116.174C181.131 116.174 181.316 116.359 181.316 116.585C181.315 116.812 181.13 116.996 180.904 116.996ZM180.904 116.333C180.764 116.333 180.651 116.446 180.651 116.585C180.651 116.724 180.764 116.837 180.904 116.837C181.043 116.837 181.156 116.724 181.156 116.585C181.156 116.446 181.043 116.333 180.904 116.333ZM184.06 130.624C183.833 130.624 183.648 130.439 183.648 130.213C183.648 129.986 183.833 129.801 184.06 129.801C184.288 129.801 184.473 129.986 184.473 130.213C184.473 130.439 184.288 130.624 184.06 130.624ZM184.06 129.961C183.921 129.961 183.808 130.074 183.808 130.213C183.808 130.352 183.921 130.464 184.06 130.464C184.2 130.464 184.313 130.352 184.313 130.213C184.313 130.074 184.2 129.961 184.06 129.961Z" fill="#A0C5FF"/>
<path d="M181.513 110.092L181.059 112.765C181.059 112.765 181.556 115.28 184.984 113.367L184.147 109.546L181.513 110.092Z" fill="#FECECC"/>
<path opacity="0.1" d="M184.146 109.546L181.512 110.092L181.315 111.252C181.378 111.27 181.441 111.288 181.504 111.304C181.807 111.383 182.115 111.45 182.41 111.543C182.641 111.616 182.871 111.709 183.042 111.847C183.221 111.992 183.31 112.173 183.322 112.367C183.343 112.685 183.117 112.963 182.957 113.247C182.854 113.43 182.799 113.675 182.573 113.802C182.408 113.894 182.193 113.928 181.981 113.925C182.563 114.194 183.498 114.197 184.983 113.368L184.146 109.546Z" fill="#201135"/>
<path d="M179.144 102.72C179.144 102.72 177.565 111.308 180.784 111.51C184.004 111.712 186.212 108.297 186.212 108.297C186.212 108.297 187.548 108.084 187.64 106.478C187.713 105.183 186.911 105.417 186.911 105.417C186.911 105.417 187.528 102.112 185.22 101.466C182.911 100.82 179.144 102.72 179.144 102.72Z" fill="#FECECC"/>
<path opacity="0.1" d="M183.879 107.16C183.914 107.369 183.686 107.581 183.369 107.635C183.053 107.688 182.768 107.562 182.732 107.353C182.697 107.144 182.925 106.931 183.242 106.878C183.559 106.825 183.844 106.951 183.879 107.16ZM180.292 107.18C180.327 107.389 180.099 107.601 179.782 107.654C179.466 107.708 179.18 107.581 179.145 107.372C179.11 107.163 179.338 106.951 179.655 106.898C179.971 106.844 180.256 106.971 180.292 107.18Z" fill="#201135"/>
<path d="M180.444 105.215C180.414 105.215 180.384 105.2 180.367 105.171C180.353 105.146 180.01 104.582 179.17 104.953C179.125 104.973 179.073 104.953 179.054 104.908C179.034 104.864 179.054 104.811 179.099 104.792C180.089 104.354 180.516 105.076 180.521 105.083C180.545 105.126 180.53 105.18 180.488 105.204C180.474 105.212 180.459 105.215 180.444 105.215ZM182.161 105.231C182.15 105.231 182.139 105.229 182.128 105.225C182.083 105.207 182.06 105.156 182.079 105.11C182.082 105.103 182.404 104.331 183.568 104.58C183.616 104.59 183.646 104.637 183.636 104.685C183.626 104.732 183.579 104.763 183.531 104.753C182.511 104.535 182.246 105.169 182.243 105.176C182.229 105.21 182.197 105.231 182.161 105.231ZM181.153 107.442C181.122 107.442 181.092 107.438 181.062 107.43C180.874 107.375 180.795 107.164 180.792 107.155C180.782 107.129 180.786 107.1 180.801 107.077C181.119 106.59 181.034 105.933 181.033 105.926C181.026 105.878 181.06 105.834 181.109 105.827C181.159 105.82 181.202 105.854 181.209 105.903C181.213 105.931 181.298 106.597 180.975 107.131C181.001 107.177 181.048 107.242 181.112 107.26C181.172 107.277 181.245 107.254 181.328 107.19C181.367 107.16 181.423 107.168 181.452 107.206C181.482 107.245 181.475 107.3 181.436 107.33C181.339 107.405 181.243 107.442 181.153 107.442Z" fill="#000141"/>
<path d="M180.017 108.593C180.017 108.593 181.026 109.05 182.158 108.525C182.414 108.994 181.074 110.215 180.017 108.593Z" fill="#FCFAF7"/>
<path d="M180.175 105.928C180.175 106.203 180.022 106.426 179.833 106.426C179.645 106.426 179.492 106.203 179.492 105.928C179.492 105.652 179.645 105.429 179.833 105.429C180.022 105.429 180.175 105.653 180.175 105.928ZM183.25 105.928C183.25 106.203 183.097 106.426 182.908 106.426C182.72 106.426 182.566 106.203 182.566 105.928C182.566 105.652 182.72 105.429 182.908 105.429C183.097 105.429 183.25 105.653 183.25 105.928Z" fill="#000141"/>
<path opacity="0.1" d="M181.326 109.845C181.232 109.845 181.171 109.831 181.165 109.83C181.142 109.824 181.127 109.801 181.132 109.777C181.138 109.753 181.162 109.739 181.186 109.744C181.19 109.745 181.578 109.831 181.931 109.526C181.95 109.511 181.977 109.513 181.993 109.531C182.009 109.549 182.007 109.577 181.989 109.594C181.743 109.805 181.486 109.845 181.326 109.845ZM186.758 105.943C186.758 105.943 187.274 105.7 187.376 106.064C187.477 106.428 187.153 107.347 186.657 107.56C186.657 107.56 187.558 106.691 187.264 106.165C186.971 105.639 186.788 106.195 186.758 105.943Z" fill="#201135"/>
<path d="M184.841 112.61C184.841 112.61 185.613 113.32 185.196 114.41C184.841 115.335 184.382 116.149 183.085 115.924C181.788 115.7 181.742 114.41 181.742 114.41C181.742 114.41 180.621 115.894 179.685 115.114C178.096 113.789 181.103 112.508 181.103 112.508C181.103 112.508 181.06 113.261 182.198 113.598C183.336 113.936 184.841 112.61 184.841 112.61Z" fill="#95B5FA"/>
<path d="M183.981 102.003C183.981 102.003 183.051 103.693 182.053 103.621C181.055 103.548 180.961 103.363 180.961 103.363C180.961 103.363 180.382 104.248 178.905 104.176C177.427 104.103 177.306 103.092 177.306 103.092C177.306 103.092 176.21 102.748 176.532 101.52C176.854 100.292 177.891 100.675 177.891 100.675C177.891 100.675 177.339 99.9265 178.398 99.1063C179.458 98.2855 180.485 99.7579 180.485 99.7579C180.485 99.7579 180.769 99.3326 182.23 98.8576C183.692 98.382 184.694 99.9514 184.694 99.9514C184.694 99.9514 186.715 99.2998 187.126 101.231C187.126 101.231 188.481 102.027 187.876 103.21C187.876 103.21 188.899 105.576 186.799 105.588C186.799 105.588 186.449 106.779 185.602 106.709C184.756 106.639 185.244 105.465 185.061 105.002C184.876 104.538 183.522 104.128 183.981 102.003Z" fill="#112248"/>
<path d="M192.144 124.533C192.144 124.533 194.705 131.641 193.48 132.91H183.396C183.396 132.91 187.54 131.519 187.643 129.961C187.747 128.402 186.244 126.038 186.244 126.038L192.144 124.533Z" fill="#FECECC"/>
<path d="M185.6 127.258C185.6 127.258 190.32 128.664 192.883 125.385C192.883 125.385 191.71 117.268 186.884 113.758C184.004 114.431 185.6 127.258 185.6 127.258Z" fill="#95B5FA"/>
<path opacity="0.1" d="M169.18 81.4705H124.347C123.141 81.4705 122.163 82.4478 122.165 83.652L122.193 105.98C122.194 107.183 123.171 108.157 124.375 108.157H162.297L166.83 109.704L167.779 108.157H169.18C172.143 108.157 174.544 105.76 174.544 102.804V86.8237C174.543 83.8674 172.142 81.4705 169.18 81.4705Z" fill="#000141"/>
<path d="M166.83 106.018V109.704L159.246 106.462L166.83 106.018Z" fill="white"/>
<path d="M125.262 80.6775H168.23C171.192 80.6775 173.593 83.0738 173.593 86.0301V102.009C173.593 104.965 171.192 107.362 168.23 107.362H125.262C122.3 107.362 119.899 104.965 119.899 102.009V86.0301C119.899 83.0738 122.3 80.6775 125.262 80.6775Z" fill="white"/>
<path d="M127.666 93.27C126.073 93.27 124.781 94.5592 124.781 96.1499C124.781 97.7405 126.073 99.0297 127.666 99.0297C129.26 99.0297 130.552 97.7405 130.552 96.1499C130.552 94.5592 129.26 93.27 127.666 93.27ZM127.666 98.5553C126.335 98.5553 125.252 97.4785 125.252 96.1493C125.252 94.8201 126.334 93.7432 127.666 93.7432C128.998 93.7432 130.077 94.8201 130.077 96.1493C130.077 97.4785 128.998 98.5553 127.666 98.5553Z" fill="#95B5FA"/>
<path d="M128.045 96.1493C128.045 96.3586 127.876 96.5279 127.666 96.5279C127.456 96.5279 127.286 96.3586 127.286 96.1493C127.286 95.94 127.456 95.7708 127.666 95.7708C127.876 95.7708 128.045 95.94 128.045 96.1493Z" fill="#A0C5FF"/>
<path d="M127.665 94.1096C127.531 94.1096 127.421 94.2182 127.421 94.3529V96.0412C127.421 96.1753 127.53 96.2845 127.665 96.2845C127.799 96.2845 127.909 96.1759 127.909 96.0412V94.3529C127.909 94.2182 127.799 94.1096 127.665 94.1096Z" fill="#A0C5FF"/>
<path d="M129.09 94.8056C128.995 94.711 128.84 94.711 128.745 94.8056L127.549 95.9995C127.454 96.0942 127.454 96.2483 127.549 96.3435C127.643 96.4381 127.798 96.4381 127.893 96.3435L129.09 95.1496C129.185 95.0543 129.185 94.9002 129.09 94.8056Z" fill="#A0C5FF"/>
<path d="M141.497 93.938H133.905C133.718 93.938 133.545 94.0654 133.515 94.2492C133.477 94.484 133.657 94.686 133.885 94.686H141.497C141.705 94.686 141.872 94.5186 141.872 94.3117C141.871 94.1054 141.703 93.938 141.497 93.938ZM155.996 93.938H142.756C142.548 93.938 142.381 94.1054 142.381 94.3123C142.381 94.5192 142.548 94.6866 142.756 94.6866H156.016C156.244 94.6866 156.424 94.484 156.386 94.2498C156.356 94.0654 156.183 93.938 155.996 93.938ZM144.769 95.775H133.904C133.718 95.775 133.544 95.9024 133.514 96.0862C133.476 96.3204 133.656 96.5236 133.884 96.5236H144.768C144.976 96.5236 145.144 96.3562 145.144 96.1493C145.144 95.943 144.976 95.775 144.769 95.775ZM144.769 97.6126H133.904C133.718 97.6126 133.544 97.74 133.514 97.9238C133.476 98.1586 133.656 98.3612 133.884 98.3612H144.768C144.976 98.3612 145.144 98.1938 145.144 97.9869C145.144 97.78 144.976 97.6126 144.769 97.6126ZM155.996 95.775H146.029C145.821 95.775 145.654 95.9424 145.654 96.1493C145.654 96.3562 145.821 96.5236 146.029 96.5236H156.016C156.244 96.5236 156.424 96.321 156.386 96.0862C156.356 95.9024 156.183 95.775 155.996 95.775Z" fill="#95B5FA"/>
<path d="M120.849 88.8322V86.03C120.849 83.6009 122.829 81.625 125.262 81.625H168.229C170.663 81.625 172.642 83.6009 172.642 86.03V88.8322H120.849Z" fill="#5965E1"/>
<path d="M130.523 85.9669L130.258 86.7817H129.388L130.523 83.6416H131.526L132.662 86.7817H131.768L131.504 85.9669H130.523ZM130.723 85.3299H131.307L131.015 84.3653L130.723 85.3299ZM135.757 84.6608C135.757 85.2796 135.341 85.6029 134.885 85.6575C134.717 85.6757 134.589 85.68 134.393 85.68H134.028V86.7811H133.208V83.641H134.394C134.59 83.641 134.718 83.6458 134.886 83.664C135.342 83.7186 135.757 84.042 135.757 84.6608ZM134.899 84.6608C134.899 84.4242 134.777 84.301 134.566 84.2834C134.507 84.2786 134.434 84.2786 134.348 84.2786H134.028V85.043H134.348C134.434 85.043 134.507 85.043 134.566 85.0381C134.777 85.0205 134.899 84.8974 134.899 84.6608ZM138.943 84.6608C138.943 85.2796 138.528 85.6029 138.072 85.6575C137.904 85.6757 137.776 85.68 137.58 85.68H137.215V86.7811H136.394V83.641H137.58C137.777 83.641 137.904 83.6458 138.073 83.664C138.528 83.7186 138.943 84.042 138.943 84.6608ZM138.085 84.6608C138.085 84.4242 137.962 84.301 137.752 84.2834C137.693 84.2786 137.62 84.2786 137.533 84.2786H137.214V85.043H137.533C137.62 85.043 137.693 85.043 137.752 85.0381C137.963 85.0205 138.085 84.8974 138.085 84.6608ZM142.682 85.2116C142.682 86.2175 142.052 86.8454 141.072 86.8454C140.092 86.8454 139.462 86.2175 139.462 85.2116C139.462 84.2015 140.092 83.5779 141.072 83.5779C142.052 83.5779 142.682 84.2015 142.682 85.2116ZM141.842 85.2116C141.842 84.5425 141.546 84.1785 141.071 84.1785C140.597 84.1785 140.301 84.5425 140.301 85.2116C140.301 85.8759 140.597 86.2448 141.071 86.2448C141.546 86.2448 141.842 85.8759 141.842 85.2116ZM143.423 86.7817V83.6416H144.244V86.7817H143.423ZM147.043 86.7817L145.899 84.7063C145.926 85.0248 145.926 85.3026 145.926 85.4846V86.7817H145.105V83.6416H146.127L147.322 85.808C147.299 85.4895 147.294 85.1661 147.294 84.9841V83.6416H148.115V86.7817H147.043ZM150.517 84.2786V86.7817H149.696V84.2786H148.675V83.6416H151.539V84.2786H150.517ZM155.705 86.7817H154.885V85.4616C154.885 85.1886 154.885 84.7833 154.894 84.4648C154.839 84.7833 154.748 85.1837 154.675 85.4616L154.328 86.7817H153.485L153.133 85.4616C153.06 85.1886 152.969 84.7833 152.919 84.4648C152.928 84.7833 152.928 85.1886 152.928 85.4616V86.7817H152.108V83.6416H153.389L153.923 85.9851L154.457 83.6416H155.706V86.7817H155.705ZM158.978 86.7817H156.565V83.6416H158.932V84.2786H157.386V84.8883H158.841V85.5253H157.386V86.1447H158.978V86.7817ZM161.668 86.7817L160.523 84.7063C160.55 85.0248 160.55 85.3026 160.55 85.4846V86.7817H159.73V83.6416H160.751L161.946 85.808C161.923 85.4895 161.919 85.1661 161.919 84.9841V83.6416H162.739V86.7817H161.668ZM165.141 84.2786V86.7817H164.32V84.2786H163.299V83.6416H166.163V84.2786H165.141Z" fill="white"/>
<path d="M168.492 91.7085H161.554C160.28 91.7085 159.246 92.7398 159.246 94.012V100.889C159.246 102.161 160.28 103.193 161.554 103.193H168.492C169.767 103.193 170.8 102.161 170.8 100.889V94.012C170.8 92.7398 169.767 91.7085 168.492 91.7085Z" fill="#EDF3FE"/>
<path d="M170.392 95.2181V94.012C170.392 92.9668 169.54 92.1162 168.492 92.1162H161.554C160.507 92.1162 159.655 92.9668 159.655 94.012V95.2181H170.392Z" fill="#95B5FA"/>
<path d="M163.038 94.0581L162.952 94.3233H162.668L163.038 93.3004H163.365L163.734 94.3233H163.443L163.357 94.0581H163.038ZM163.104 93.8507H163.294L163.199 93.5364L163.104 93.8507ZM164.743 93.6329C164.743 93.8343 164.608 93.9398 164.459 93.9574C164.404 93.9635 164.362 93.9647 164.298 93.9647H164.179V94.3233H163.912V93.3004H164.298C164.362 93.3004 164.403 93.3016 164.458 93.3077C164.608 93.3259 164.743 93.4308 164.743 93.6329ZM164.464 93.6329C164.464 93.5558 164.424 93.5158 164.355 93.5097C164.336 93.5085 164.312 93.5085 164.284 93.5085H164.18V93.7578H164.284C164.312 93.7578 164.337 93.7578 164.355 93.7566C164.424 93.7499 164.464 93.7099 164.464 93.6329ZM165.827 94.3233H165.535C165.512 94.2505 165.497 94.1916 165.488 94.1188C165.475 94.006 165.43 93.9411 165.362 93.9362C165.332 93.9344 165.307 93.9344 165.277 93.9344H165.217V94.3226H164.95V93.2998H165.357C165.421 93.2998 165.462 93.301 165.517 93.3071C165.666 93.3247 165.795 93.3975 165.795 93.5783C165.795 93.7075 165.725 93.793 165.588 93.8331C165.695 93.8719 165.734 93.9502 165.749 94.0733C165.763 94.1904 165.786 94.2626 165.827 94.3233ZM165.314 93.7427C165.342 93.7427 165.366 93.7427 165.385 93.7415C165.453 93.7354 165.516 93.7117 165.516 93.6262C165.516 93.5407 165.461 93.5164 165.393 93.5103C165.373 93.5091 165.349 93.5091 165.321 93.5091H165.217V93.7433H165.314V93.7427ZM166.045 94.3233V93.3004H166.312V94.3233H166.045ZM167.379 94.3233H166.593V93.3004H166.861V94.0982H167.379V94.3233H167.379Z" fill="white"/>
<path d="M164.468 99.7989V100.591H161.435V100.15L162.665 98.9963C163.249 98.4473 163.448 98.1761 163.448 97.803C163.448 97.5088 163.284 97.3449 163.006 97.3449C162.711 97.3449 162.564 97.5318 162.524 97.9389L162.518 97.9953H161.498L161.504 97.9389C161.589 97.0792 162.133 96.5981 163.091 96.5981C164.003 96.5981 164.514 97.0337 164.514 97.7635C164.514 98.2216 164.304 98.5728 163.551 99.2966L163.029 99.8001H164.468V99.7989ZM168.611 99.4313C168.611 100.178 167.999 100.67 167.012 100.67C166.02 100.67 165.442 100.189 165.363 99.4088L165.357 99.3524H166.377L166.389 99.4088C166.445 99.6806 166.638 99.9239 166.973 99.9239C167.324 99.9239 167.546 99.7261 167.546 99.4598C167.546 99.1261 167.302 98.9563 166.894 98.9393L166.741 98.9338V98.2774L166.894 98.2659C167.268 98.2374 167.455 98.0341 167.455 97.7678C167.455 97.513 167.302 97.3547 167.019 97.3547C166.718 97.3547 166.594 97.5979 166.571 97.8527L166.565 97.9092H165.544L165.55 97.8527C165.618 97.1963 166.106 96.6078 167.12 96.6078C168.078 96.6078 168.52 97.0944 168.52 97.6489C168.52 98.1069 168.288 98.4127 167.777 98.537C168.333 98.6444 168.611 98.9277 168.611 99.4313Z" fill="#95B5FA"/>
<path d="M94.0913 58.4613C93.464 62.5418 93.6695 65.0285 94.0178 67.0087C94.6251 70.4988 95.6737 72.4529 93.4087 78.8453C89.8549 88.8669 79.6544 81.4989 70.6625 90.139C60.7708 99.6552 51.3953 103.54 43.551 103.598C34.331 103.668 27.215 98.434 23.823 90.8094C17.5477 76.6808 23.2819 72.3807 35.8082 68.3003C48.3272 64.2204 42.6793 52.587 49.3375 48.3931C55.997 44.2071 64.0869 45.3786 67.2564 42.7062C70.4248 40.0338 80.0812 36.3738 88.8063 39.8555C96.0962 42.7535 95.8147 47.2101 94.0913 58.4613Z" fill="#131957"/>
<path opacity="0.5" d="M93.4085 78.8454C89.8547 88.867 79.6543 81.499 70.6623 90.1391C60.7706 99.6553 51.3951 103.54 43.5508 103.598C43.5787 103.396 43.5994 103.195 43.6286 103C44.5058 96.6438 46.3732 90.0105 49.2966 84.2909C52.1458 78.7108 56.398 74.2457 61.3846 70.5129C63.8946 68.6255 66.5347 66.9202 69.1468 65.1803C70.5237 64.2593 71.9273 63.3736 73.4288 62.6583C74.8592 61.9831 76.4683 61.5142 77.7193 60.5095C79.7351 58.8903 80.3728 56.4127 80.6305 53.9594C80.8555 51.793 80.8992 49.5192 82.4038 47.9182C86.1125 47.3473 86.1551 52.9244 86.3788 55.4317C86.5587 57.4714 86.8918 59.5146 87.5058 61.4766C88.2845 63.9603 89.8523 65.7803 92.3586 66.6041C92.9015 66.7807 93.4541 66.9172 94.0164 67.0075C94.6249 70.4989 95.6741 72.4524 93.4085 78.8454Z" fill="#0A0C2B"/>
<path d="M90.7797 74.305L90.2807 66.8381C90.2807 66.8381 103.904 70.0565 108.433 99.2851C110.105 110.076 106.75 114.411 101.488 115.256C96.2259 116.101 82.975 97.4457 90.7797 74.305Z" fill="#303ED9"/>
<path d="M114.856 60.4275C114.839 60.5445 114.814 60.6483 114.786 60.7278C114.78 60.7441 114.775 60.7587 114.77 60.7714C114.633 61.1075 114.48 61.4351 114.328 61.7336C113.921 62.5374 113.527 63.138 113.527 63.138C113.527 63.138 113.42 68.379 113.155 69.01C112.645 69.5438 109.813 68.8437 109.813 68.8437C109.43 68.3269 110.186 63.1077 110.123 62.0746C110.06 61.0402 110.425 59.8681 110.425 59.8681C110.425 59.8681 110.497 54.5264 111.707 54.5452C112.245 54.5531 112.014 57.2497 112.043 58.2853C112.044 58.2938 112.043 58.3023 112.044 58.3108C112.045 58.3084 112.415 58.0117 112.788 58.2307C112.971 58.3369 113.024 58.471 113.024 58.471C113.024 58.471 113.289 58.3739 113.482 58.4321C113.677 58.4904 113.939 58.6851 113.935 58.7822C113.938 58.7822 114.168 58.6839 114.375 58.8331C114.581 58.9812 114.644 59.3579 114.644 59.3579H114.642C114.668 59.3961 114.693 59.4343 114.715 59.4738C114.881 59.7759 114.895 60.1429 114.856 60.4275Z" fill="#FECECC"/>
<path opacity="0.2" d="M114.856 60.4274C114.821 60.3886 114.779 60.3565 114.728 60.3371C114.501 60.2509 114.355 60.4463 114.273 60.6131C114.225 60.7108 114.193 60.8206 114.132 60.9122C114.082 60.9929 113.992 61.0584 113.909 61.1069C113.206 61.534 111.818 61.1718 111.807 60.2624C111.802 59.8899 111.831 59.5029 111.88 59.1365C111.921 58.8301 111.943 58.5996 112.044 58.3108C112.045 58.3084 112.415 58.0117 112.788 58.2307C112.971 58.3369 113.024 58.4709 113.024 58.4709C113.024 58.4709 113.289 58.3739 113.483 58.4321C113.677 58.4904 113.939 58.6851 113.935 58.7822C113.938 58.7822 114.168 58.6839 114.375 58.8331C114.582 58.9812 114.644 59.3579 114.644 59.3579H114.642C114.669 59.3961 114.693 59.4343 114.715 59.4738C114.881 59.7759 114.895 60.1429 114.856 60.4274Z" fill="white"/>
<path opacity="0.1" d="M114.346 60.4324C114.139 61.3509 113.637 61.5523 113.414 61.596C112.821 61.4523 112.27 61.2181 112.01 60.9718C111.828 60.8001 111.769 60.407 111.777 59.9617C111.773 59.9859 111.768 60.0102 111.763 60.0351C111.69 60.444 111.628 60.916 111.814 61.3048C111.997 61.6889 112.404 61.863 112.811 61.8787C113.138 61.8915 113.466 61.8223 113.779 61.7174H113.779C113.78 61.7174 113.78 61.7168 113.781 61.7161C113.81 61.7064 113.839 61.6967 113.869 61.6864C113.861 61.6852 113.853 61.684 113.845 61.6822C114.331 61.4013 114.346 60.4324 114.346 60.4324Z" fill="#5D74E4"/>
<path d="M113.401 61.491C113.522 61.2174 113.596 60.9929 113.672 60.7066C113.748 60.4142 113.799 60.1114 113.78 59.8105C113.778 60.1121 113.706 60.4057 113.612 60.689C113.516 60.9711 113.267 61.4892 113.267 61.4892C113.165 61.4874 112.828 61.3636 112.685 61.3023C112.678 61.2993 112.671 61.2963 112.664 61.2932C112.763 61.0051 112.85 60.7157 112.925 60.4215C112.998 60.1242 113.063 59.8215 113.075 59.5151C113.042 59.8196 112.957 60.1145 112.864 60.4045C112.771 60.6884 112.665 60.9687 112.549 61.2429C112.453 61.1992 112.359 61.1543 112.271 61.0985C112.03 60.9444 111.922 60.8182 111.846 60.3638C111.821 60.2115 111.816 60.055 111.813 59.8985C111.806 59.742 111.81 59.5855 111.813 59.4277C111.754 59.7377 111.729 60.0544 111.751 60.3735C111.762 60.5331 111.787 60.6945 111.855 60.8498C111.875 60.8874 111.891 60.9274 111.92 60.9614L111.961 61.0136L112.007 61.0572C112.038 61.0876 112.07 61.1131 112.104 61.1367C112.137 61.1622 112.171 61.1852 112.206 61.2053C112.486 61.3715 112.789 61.4758 113.095 61.5571C113.402 61.6378 113.7 61.6214 113.975 61.2471C113.797 61.4589 113.466 61.5098 113.401 61.491Z" fill="#EAB2B2"/>
<path opacity="0.1" d="M113.498 63.0865C113.107 63.3947 112.302 63.3504 111.571 63.2351C111.016 63.1478 110.569 62.8177 110.253 62.4907C110.292 62.5854 110.335 62.68 110.385 62.7716C110.517 63.0106 111.032 64.0778 111.762 64.1263C112.902 64.2021 113.269 63.2406 113.492 63.132C113.494 63.1168 113.497 63.1016 113.498 63.0865ZM111.678 59.6631C111.678 59.6631 111.794 59.9816 111.512 60.078C111.23 60.1739 110.794 59.7826 110.681 60.5773C110.568 61.3714 110.2 62.2857 110.115 61.6365C110.03 60.9874 109.921 59.8311 110.368 59.66C110.814 59.4877 111.678 59.6631 111.678 59.6631Z" fill="#5D74E4"/>
<path d="M110.123 62.0745C110.123 62.0745 109.289 60.5027 109.268 59.9664C109.247 59.4301 109.901 58.7718 110.303 58.7227C110.674 58.6778 111.482 59.151 111.639 59.3931C111.796 59.6351 111.931 59.9767 111.182 59.9251C110.433 59.8736 110.39 60.0725 110.39 60.0725L110.123 62.0745Z" fill="#EAB2B2"/>
<path opacity="0.2" d="M111.159 59.4326C111.159 59.4326 111.565 59.7317 111.658 59.6984C111.75 59.665 111.585 59.3319 111.43 59.2707C111.275 59.2094 111.159 59.4326 111.159 59.4326Z" fill="white"/>
<path d="M109.384 65.7967C109.383 66.4185 101.943 93.4637 101.528 95.4414C97.7152 113.6 108.704 114.098 108.704 114.098C108.866 114.044 109.026 113.987 109.173 113.914C121.001 108.021 113.986 65.5843 113.986 65.5843C113.986 65.5843 109.397 65.1542 109.384 65.7967Z" fill="#303ED9"/>
<g opacity="0.1">
<path d="M111.212 108.19C110.198 107.997 109.329 107.435 108.948 106.449C108.558 105.436 108.635 104.286 108.765 103.23C108.918 101.988 109.192 100.764 109.381 99.5267C109.538 98.4936 109.711 97.3312 109.358 96.3187C108.769 94.6285 107.662 93.181 106.687 91.7007C105.663 90.1464 104.784 88.5321 104.505 86.6702C104.411 86.0466 104.368 85.4193 104.349 84.7908C102.913 90.1131 101.69 94.6728 101.528 95.4414C97.7152 113.6 108.704 114.098 108.704 114.098C108.866 114.044 109.026 113.987 109.173 113.914C111.184 112.912 112.649 110.851 113.698 108.125C112.887 108.322 112.033 108.346 111.212 108.19Z" fill="#000141"/>
</g>
<path d="M58.6528 133.324H102.506C99.0335 112.14 104.087 68.5702 84.9497 64.5856C74.8155 62.4757 56.0419 76.3447 60.423 94.8183C61.6248 107.692 63.5117 120.402 58.6528 133.324Z" fill="#B9CEFB"/>
<path d="M94.3083 100.43C94.3083 100.937 94.3338 101.47 94.3593 101.976C94.3338 102.002 94.3593 102.002 94.3593 102.002C94.4019 103.672 94.473 105.417 94.563 107.125C94.5861 107.776 94.594 108.4 94.6645 109.028C94.7071 110.28 94.7782 111.676 94.842 112.933C95.2754 122.708 96.5356 127.328 97.9441 133.324H106.737C104.012 63.5949 91.2773 67.7469 89.8463 66.7932C89.5971 73.7286 93.9101 90.5727 94.3083 100.379C94.2834 100.404 94.2834 100.404 94.3083 100.43Z" fill="#C7DBFF"/>
<path d="M76.8696 132.91C77.6058 129.719 81.6422 127.041 81.8324 120.708C81.858 120.682 81.858 120.657 81.8324 120.631C81.8713 119.999 81.8543 119.263 81.858 118.628C81.858 118.603 81.858 118.603 81.8324 118.578C81.7735 107.46 80.2343 96.1918 78.2744 85.3027C78.2495 85.2773 78.2495 85.2773 78.2495 85.2773C77.1954 80.8862 76.4502 66.1315 77.3559 65.3877C75.4964 66.9135 72.0459 72.2273 70.5043 73.9253C71.3341 75.8642 73.9797 79.6061 74.8441 81.6245L67.8296 95.5487C77.7881 110.112 76.8696 132.91 76.8696 132.91ZM91.7922 82.2682C92.6244 91.3118 87.3886 114.9 92.7806 132.76C92.7806 132.76 93.7107 110.112 97.5873 95.9746L92.0548 84.0294C96.9295 81.5863 95.4566 75.8654 96.0444 73.9265C94.2906 72.2285 90.4816 66.5452 88.2324 65.816C90.2621 66.4736 90.8378 71.8936 91.7922 82.2682Z" fill="#303ED9"/>
<path d="M76.8698 66.4322C76.5507 67.8445 78.1008 74.0307 81.753 76.8784C83.2369 78.1087 84.9031 78.8149 86.5238 78.5413C91.9335 77.6755 89.3542 68.7678 88.4186 66.1707C88.3955 66.0797 88.3499 65.9881 88.3274 65.9202C87.46 63.7107 87.7797 56.1474 87.7797 56.1474L82.2327 54.9856C82.2327 54.9856 82.5749 56.3069 81.1597 60.1113C79.7208 63.9157 77.3488 64.4508 76.8698 66.4322Z" fill="#FECECC"/>
<path opacity="0.5" d="M81.7529 76.8784C83.2368 78.1088 84.903 78.8149 86.5237 78.5413C91.9333 77.6756 89.354 68.7679 88.4185 66.1708C88.3954 66.0798 88.3498 65.9882 88.3273 65.9202C87.4598 63.7107 87.7796 56.1474 87.7796 56.1474L82.5748 55.0767C82.7578 55.2132 82.8715 55.4413 82.8946 55.7373C83.0088 58.767 85.6337 60.8855 86.7292 63.5736C87.5735 65.6472 88.1212 68.4943 86.8434 70.5218C86.4781 71.1145 83.9213 74.3499 81.7529 76.8784Z" fill="#EAB2B2"/>
<path d="M91.6642 58.9259C89.6861 61.6862 82.3871 59.2984 81.5622 55.7403C81.3057 54.6204 80.8649 52.6948 80.8649 52.6948C80.8649 52.6948 79.11 51.928 79.3598 50.1347C79.5689 48.7467 80.7191 49.6239 80.7191 49.6239L80.713 48.0824L91.5493 46.7483C91.5493 46.7483 91.7189 47.5321 91.9402 48.7394C92.0472 49.3612 92.1475 50.1129 92.2593 50.9052C92.6107 53.7887 92.7651 57.4068 91.6642 58.9259Z" fill="#FECECC"/>
<path opacity="0.5" d="M92.2591 50.9041C90.6731 51.2214 88.7029 51.484 87.6829 51.4027C85.8865 51.248 80.7383 49.3261 80.7383 49.3261L91.2622 46.1436C91.9205 46.9601 92.1473 50.1118 92.2591 50.9041Z" fill="#EAB2B2"/>
<path opacity="0.1" d="M84.9506 54.7333C84.936 55.0536 85.3172 55.3314 85.8023 55.3539C86.2874 55.3763 86.6928 55.1355 86.708 54.8152C86.7232 54.4954 86.3421 54.2176 85.8564 54.1945C85.3713 54.1721 84.9658 54.4135 84.9506 54.7333ZM90.3408 54.1132C90.3256 54.433 90.7068 54.7108 91.1925 54.7333C91.6776 54.7557 92.083 54.5149 92.0982 54.1945C92.1134 53.8748 91.7317 53.597 91.2466 53.5745C90.7609 53.5515 90.356 53.7929 90.3408 54.1132Z" fill="#201135"/>
<path d="M89.7552 51.1915C89.8014 51.1861 89.8427 51.1569 89.8622 51.1114C89.8792 51.072 90.2913 50.162 91.6196 50.5673C91.6913 50.5885 91.7655 50.5491 91.7867 50.4787C91.808 50.4083 91.7685 50.3337 91.698 50.3118C90.1321 49.8332 89.6208 50.9956 89.616 51.0071C89.5874 51.075 89.619 51.1533 89.6871 51.1824C89.709 51.1915 89.7327 51.1945 89.7552 51.1915ZM87.1795 51.5264C87.1959 51.5246 87.2123 51.5191 87.2275 51.5112C87.2926 51.476 87.3169 51.3947 87.281 51.3304C87.2749 51.3189 86.6512 50.2202 84.9485 50.8045C84.8786 50.8281 84.8415 50.9046 84.8659 50.9743C84.8902 51.0441 84.9649 51.0817 85.0361 51.0574C86.5278 50.5448 87.0409 51.4493 87.0464 51.4584C87.0725 51.507 87.1266 51.5331 87.1795 51.5264ZM89.0956 54.6641C89.1418 54.6586 89.1862 54.6465 89.2287 54.6283C89.5005 54.5124 89.5813 54.1812 89.5849 54.1672C89.5947 54.126 89.5843 54.0829 89.557 54.0507C88.9916 53.3779 88.9989 52.3757 88.9989 52.366C89.0002 52.292 88.9406 52.2313 88.867 52.2307C88.791 52.2289 88.7321 52.289 88.7315 52.3624C88.7309 52.4067 88.7236 53.4204 89.3053 54.1648C89.2755 54.2388 89.216 54.3444 89.1229 54.3832C89.0366 54.419 88.9223 54.3977 88.7856 54.3165C88.7217 54.2788 88.6397 54.3001 88.6026 54.3638C88.5649 54.4275 88.5862 54.5094 88.65 54.547C88.8099 54.641 88.9594 54.6805 89.0956 54.6641Z" fill="#000141"/>
<path d="M91.0115 56.1863C91.0115 56.1863 89.5787 57.055 87.7842 56.4714C87.4845 57.2219 89.7197 58.8125 91.0115 56.1863Z" fill="#FCFAF7"/>
<path d="M90.2881 52.2126C90.3379 52.6257 90.6084 52.9333 90.8917 52.8987C91.175 52.8647 91.3641 52.5013 91.3142 52.0882C91.2644 51.6751 90.9938 51.3675 90.7106 51.4021C90.4273 51.4366 90.2382 51.7994 90.2881 52.2126ZM85.6717 52.7695C85.7216 53.1826 85.9921 53.4902 86.2754 53.4556C86.5586 53.4217 86.7477 53.0589 86.6979 52.6451C86.648 52.232 86.3775 51.9244 86.0942 51.959C85.8103 51.9936 85.6213 52.3564 85.6717 52.7695Z" fill="#000141"/>
<path opacity="0.1" d="M89.2728 58.3025C89.4132 58.2855 89.502 58.2539 89.5111 58.2503C89.5457 58.2376 89.5634 58.1993 89.5506 58.1648C89.5378 58.1302 89.4989 58.1126 89.4649 58.1247C89.4594 58.1271 88.8916 58.3267 88.3075 57.9324C88.2758 57.913 88.2351 57.9203 88.2145 57.9506C88.1938 57.9809 88.2023 58.0228 88.2327 58.0434C88.6388 58.3176 89.0321 58.3316 89.2728 58.3025Z" fill="#201135"/>
<path opacity="0.5" d="M80.4632 49.9795C80.4632 49.9795 80.0705 49.5579 79.8821 49.8788C79.6949 50.2003 79.8189 51.4216 80.4243 51.8311C80.4243 51.8311 79.8025 50.7354 79.98 50.3599C80.1569 49.9838 80.6347 50.2956 80.4632 49.9795Z" fill="#EAB2B2"/>
<path d="M91.7661 48.9476C91.5758 48.0461 91.2512 47.5104 90.2111 47.2841C90.0123 47.2404 91.1655 48.0515 91.2591 49.2345C90.6968 49.6155 90.0318 49.9395 89.3339 50.1451C86.7576 50.9126 80.4878 49.2466 80.4878 49.2466C79.6842 40.5628 92.0129 42.8396 93.3053 45.9233C93.5898 46.5979 92.7521 48.0279 91.7661 48.9476Z" fill="#131957"/>
<path d="M88.4957 128.543C93.7814 114.164 96.1752 99.0055 95.4336 82.5642C95.4026 81.8939 94.9163 81.414 94.3564 81.4868C86.7523 82.4914 78.6034 83.2868 69.8643 83.8595C69.4461 83.8868 69.0905 84.3697 69.0552 84.9381C68.2206 99 64.9951 112.261 59.4383 125.03C59.2055 125.565 59.3763 126.062 59.8286 126.136C69.3282 127.698 78.3651 128.822 86.9401 129.546C87.5705 129.602 88.2744 129.148 88.4957 128.543Z" fill="white"/>
<g opacity="0.2">
<path opacity="0.1" d="M87.6017 124.432C91.7846 111.887 93.7864 98.7155 93.449 84.5886C86.4315 85.3615 78.9696 85.9554 71.0347 86.3607C70.2013 99.5035 67.2688 111.941 62.2944 123.929C67.8269 124.753 73.1952 125.432 78.4 125.974C81.5416 125.476 84.6078 124.962 87.6017 124.432Z" fill="#5D74E4"/>
</g>
<path d="M87.3887 123.851C91.5096 111.321 93.4585 98.1554 93.0762 84.0237C86.1 84.8105 78.6818 85.4208 70.7926 85.8473C70.0011 98.9877 67.1191 111.416 62.2036 123.386C67.7117 124.197 73.0564 124.867 78.2381 125.401C81.362 124.9 84.4118 124.383 87.3887 123.851Z" fill="#B9CEFB"/>
<path opacity="0.1" d="M93.0762 84.0237C91.5607 84.1948 90.0142 84.3537 88.4562 84.5078C90.044 87.9785 90.9899 91.8018 89.7656 95.2755C88.7966 98.0237 86.7753 99.6405 84.0732 100.512C83.3049 100.76 82.238 101.038 81.714 101.717C81.7012 101.733 81.6945 101.737 81.6842 101.75C81.6842 101.75 81.6848 101.75 81.6848 101.751C81.6982 101.856 81.9018 102.137 81.9353 102.199C82.5912 103.404 83.0812 104.668 83.238 106.039C83.5146 108.458 82.4252 110.551 80.4599 111.941C77.8107 113.816 74.3378 115.3 71.0989 115.648C69.1433 115.858 67.1677 115.587 65.2498 115.075C64.3373 117.87 63.3307 120.642 62.2036 123.386C67.7117 124.198 73.0564 124.867 78.2387 125.401C81.3626 124.9 84.4124 124.383 87.3893 123.851C91.5096 111.321 93.4591 98.1554 93.0762 84.0237Z" fill="#4F84F6"/>
<path d="M87.3889 123.851C86.86 123.212 86.3275 122.565 85.7902 121.909C83.3489 123.066 80.8328 124.23 78.2383 125.401C81.3623 124.9 84.4121 124.383 87.3889 123.851Z" fill="#A0C5FF"/>
<path opacity="0.25" d="M59.3345 117.262V122.067C59.3345 122.067 73.4091 126.315 82.0187 119.664C90.6283 113.013 90.3724 110.025 90.3724 110.025C90.3724 110.025 94.6057 111.736 94.3978 109.806C94.1899 107.878 89.7639 106.674 87.9748 107.072C86.1858 107.471 59.3345 117.262 59.3345 117.262Z" fill="#000141"/>
<path d="M90.289 106.076C89.3309 106.299 85.1553 106.207 84.7322 106.646C84.7322 106.646 84.5316 108.943 85.1127 109.333C85.7462 109.483 90.5364 108.943 90.5364 108.943C90.5364 108.943 91.1041 109.457 92.343 109.729C92.6731 109.802 93.0075 109.856 93.326 109.879V109.88C93.3272 109.88 93.3272 109.88 93.329 109.882C93.3448 109.884 93.4263 109.899 93.5454 109.917H93.5467C93.9771 109.985 94.9017 110.11 95.05 109.941C95.2372 109.728 95.3169 109.424 95.1363 109.242C95.1442 109.233 95.1509 109.223 95.1588 109.214C95.2713 109.2 95.5539 109.143 95.667 108.921C95.7782 108.704 95.6433 108.529 95.577 108.46C95.5807 108.449 95.5855 108.437 95.5892 108.426C95.6828 108.42 95.8877 108.392 95.9406 108.259C96.0074 108.087 96.0633 107.789 95.8038 107.645C95.805 107.641 95.805 107.636 95.8062 107.633C95.8609 107.605 96.0725 107.48 96.0421 107.177C96.0074 106.829 95.8445 106.78 95.8445 106.78C95.8445 106.78 96.0554 106.493 96.0099 106.25C95.9649 106.006 95.746 105.708 95.1916 105.634L95.1868 105.635C95.1333 105.614 95.0761 105.596 95.0147 105.587C94.7643 105.546 94.5175 105.523 94.2828 105.514C94.2348 105.513 94.1874 105.512 94.1394 105.511C93.2257 105.494 92.5266 105.664 92.5266 105.664C92.5266 105.664 93.8269 104.364 93.3278 103.646C92.8306 102.929 91.2482 105.853 90.289 106.076Z" fill="#FECECC"/>
<path opacity="0.2" d="M94.2832 105.515C94.6626 107.031 93.727 109.093 93.3264 109.879C93.3252 109.879 93.3252 109.88 93.3252 109.88H93.3264C93.3276 109.88 93.3276 109.88 93.3294 109.881C93.3933 109.886 93.4662 109.899 93.5459 109.917H93.5471C93.9775 109.985 94.9021 110.11 95.0504 109.94C95.2376 109.728 95.3173 109.423 95.1367 109.242C95.1446 109.233 95.1513 109.222 95.1592 109.213C95.2717 109.2 95.5543 109.143 95.6674 108.92C95.7787 108.704 95.6437 108.528 95.5774 108.46C95.5811 108.448 95.586 108.437 95.5896 108.426C95.6832 108.42 95.8881 108.391 95.941 108.258C96.0078 108.087 96.0638 107.788 95.8042 107.644C95.8054 107.641 95.8054 107.636 95.8066 107.632C95.8613 107.604 96.0729 107.479 96.0425 107.176C96.0078 106.828 95.8449 106.78 95.8449 106.78C95.8449 106.78 96.0559 106.492 96.0103 106.25C95.9653 106.006 95.7464 105.707 95.192 105.634L95.1872 105.634C95.1337 105.614 95.0765 105.595 95.0151 105.586C94.7641 105.546 94.5173 105.524 94.2832 105.515Z" fill="white"/>
<path d="M95.097 109.15C94.9103 109.04 94.7176 108.95 94.5176 108.875C94.3176 108.801 94.1104 108.747 93.8994 108.725C94.1079 108.762 94.3085 108.832 94.4994 108.919C94.6897 109.006 94.8745 109.111 95.0441 109.229L95.0453 109.23C95.0666 109.245 95.0964 109.24 95.1116 109.218C95.1268 109.197 95.1213 109.167 95.1 109.153C95.0988 109.151 95.0976 109.151 95.097 109.15ZM95.7839 106.709C95.5748 106.595 95.3596 106.504 95.1377 106.431C94.9152 106.358 94.6854 106.307 94.4538 106.292C94.6842 106.324 94.9061 106.392 95.1195 106.48C95.3316 106.568 95.5389 106.674 95.7286 106.797L95.7304 106.798C95.7541 106.814 95.7869 106.807 95.8021 106.783C95.8179 106.759 95.8112 106.726 95.7869 106.711C95.7863 106.71 95.7851 106.709 95.7839 106.709ZM95.7371 107.549C95.5286 107.425 95.3128 107.325 95.0885 107.241C94.8648 107.158 94.6331 107.097 94.3973 107.073C94.6307 107.115 94.855 107.192 95.0684 107.29C95.2812 107.388 95.4885 107.504 95.6775 107.636L95.6793 107.638C95.703 107.655 95.7365 107.649 95.7529 107.625C95.7699 107.601 95.7638 107.568 95.7401 107.552C95.7395 107.55 95.7383 107.549 95.7371 107.549ZM95.5274 108.353C95.3188 108.23 95.1037 108.129 94.8799 108.046C94.6569 107.963 94.4252 107.903 94.19 107.879C94.4228 107.92 94.6465 107.997 94.8599 108.095C95.0727 108.193 95.2787 108.309 95.4678 108.441L95.4696 108.442C95.4939 108.459 95.5268 108.453 95.5432 108.429C95.5602 108.406 95.5541 108.372 95.5304 108.356C95.5292 108.354 95.528 108.354 95.5274 108.353Z" fill="#FF97A6"/>
<path opacity="0.2" d="M93.0093 103.625C93.0093 103.625 92.6403 104.204 92.5169 104.213C92.3935 104.221 92.354 104.076 92.354 104.076C92.354 104.076 92.7917 103.582 93.0093 103.625Z" fill="white"/>
<path d="M69.6996 69.752C69.6996 69.752 46.7874 87.6438 51.9965 112.625C53.1807 118.303 66.5051 110.43 65.3969 107.693C58.4359 90.5042 69.6996 69.752 69.6996 69.752Z" fill="#303ED9"/>
<path opacity="0.25" d="M64.8091 106.096C62.6456 99.6836 62.8341 92.8901 63.9016 86.9327C63.9016 86.929 63.9016 86.926 63.9016 86.9223C63.9119 86.0748 63.9879 85.2297 64.0693 84.3865C63.4383 84.9628 62.9374 85.6714 62.4906 86.3951C61.9703 87.239 61.5229 88.1248 61.0584 88.9996C60.8286 89.4327 60.5885 89.8568 60.4214 90.3197C60.2499 90.7941 60.1454 91.2885 60.0992 91.7902C60.0116 92.7476 60.1387 93.7055 60.2986 94.6488C60.6019 96.4428 61.146 98.4053 60.3375 100.142C59.9891 100.89 59.4761 101.54 58.9831 102.196C58.4129 102.954 57.8925 103.745 57.4755 104.598C56.6409 106.308 56.1886 108.238 56.5454 110.124C57.388 109.273 58.3217 108.516 59.3502 107.898C61.0116 106.901 62.8852 106.298 64.8091 106.096Z" fill="#000141"/>
<path d="M89.1369 105.317C89.1369 105.317 90.3387 108.818 89.1466 110.156C87.9552 111.495 65.0649 119.36 58.6528 118.024C47.2341 115.644 51.0438 106.375 61.3239 104.59C71.604 102.806 89.1369 105.317 89.1369 105.317Z" fill="#303ED9"/>
<path d="M52.53 133.344H110.36C110.518 133.344 110.647 133.216 110.647 133.058C110.647 132.9 110.518 132.772 110.36 132.772H52.53C52.3719 132.772 52.2437 132.9 52.2437 133.058C52.2437 133.216 52.3719 133.344 52.53 133.344Z" fill="#A0C5FF"/>
<path d="M142.293 43.8481C142.293 45.0687 141.529 45.8313 140.339 45.8313C139.149 45.8313 138.385 45.0687 138.385 43.8481C138.385 42.6214 139.149 41.8649 140.339 41.8649C141.529 41.8649 142.293 42.6214 142.293 43.8481ZM141.274 43.8481C141.274 43.0357 140.914 42.5941 140.339 42.5941C139.763 42.5941 139.403 43.0357 139.403 43.8481C139.403 44.6543 139.763 45.102 140.339 45.102C140.914 45.102 141.274 44.6543 141.274 43.8481ZM145.549 45.7536L144.159 43.2341C144.193 43.6212 144.193 43.9579 144.193 44.1787V45.753H143.196V41.9413H144.436L145.887 44.5712C145.859 44.1842 145.853 43.7922 145.853 43.5708V41.9413H146.85V45.753H145.549V45.7536ZM150.826 45.7536H147.898V41.9419H148.894V44.914H150.826V45.7536ZM151.679 45.7536V41.9419H152.676V45.7536H151.679ZM156.075 45.7536L154.685 43.2341C154.719 43.6212 154.719 43.9579 154.719 44.1787V45.753H153.723V41.9413H154.963L156.413 44.5712C156.385 44.1842 156.38 43.7922 156.38 43.5708V41.9413H157.376V45.753H156.075V45.7536ZM161.352 45.7536H158.423V41.9419H161.296V42.7154H159.42V43.4555H161.186V44.229H159.42V44.9801H161.352V45.7536ZM167.094 43.7983C167.094 44.9916 166.363 45.6323 165.477 45.7318C165.283 45.7536 165.195 45.7536 164.99 45.7536H163.546V41.9419H164.99C165.195 41.9419 165.283 41.9419 165.477 41.9638C166.363 42.0632 167.094 42.605 167.094 43.7983ZM166.053 43.8147C166.053 43.1352 165.71 42.7706 165.212 42.7263C165.085 42.7154 164.996 42.7154 164.852 42.7154H164.542V44.9807H164.852C164.996 44.9807 165.085 44.9807 165.212 44.9698C165.71 44.9255 166.053 44.4942 166.053 43.8147ZM171.761 43.8481C171.761 45.0687 170.997 45.8313 169.807 45.8313C168.617 45.8313 167.852 45.0687 167.852 43.8481C167.852 42.6214 168.617 41.8649 169.807 41.8649C170.997 41.8649 171.761 42.6214 171.761 43.8481ZM170.743 43.8481C170.743 43.0357 170.383 42.5941 169.807 42.5941C169.232 42.5941 168.872 43.0357 168.872 43.8481C168.872 44.6543 169.232 45.102 169.807 45.102C170.383 45.102 170.743 44.6543 170.743 43.8481ZM176.136 43.1959L176.141 43.2511H175.145L175.134 43.1959C175.051 42.787 174.802 42.5941 174.398 42.5941C173.922 42.5941 173.562 42.992 173.562 43.8147C173.562 44.7763 173.961 45.102 174.403 45.102C174.791 45.102 175.04 44.8642 175.123 44.4444L175.134 44.3892H176.13L176.125 44.4444C176.03 45.3617 175.328 45.8313 174.37 45.8313C173.345 45.8313 172.521 45.1682 172.521 43.8754C172.521 42.5492 173.373 41.8643 174.409 41.8643C175.499 41.8649 176.058 42.4448 176.136 43.1959ZM178.905 42.7154V45.7542H177.908V42.7154H176.668V41.9419H180.145V42.7154H178.905ZM184.48 43.8481C184.48 45.0687 183.716 45.8313 182.526 45.8313C181.336 45.8313 180.571 45.0687 180.571 43.8481C180.571 42.6214 181.336 41.8649 182.526 41.8649C183.716 41.8649 184.48 42.6214 184.48 43.8481ZM183.461 43.8481C183.461 43.0357 183.102 42.5941 182.526 42.5941C181.95 42.5941 181.59 43.0357 181.59 43.8481C181.59 44.6543 181.95 45.102 182.526 45.102C183.102 45.102 183.461 44.6543 183.461 43.8481ZM188.65 45.7536H187.565C187.476 45.483 187.421 45.2622 187.388 44.991C187.338 44.5712 187.172 44.3279 186.917 44.3115C186.807 44.3061 186.712 44.3061 186.602 44.3061H186.38V45.7536H185.384V41.9419H186.901C187.139 41.9419 187.294 41.9474 187.498 41.9692C188.052 42.0353 188.534 42.3059 188.534 42.9805C188.534 43.461 188.273 43.7813 187.764 43.9306C188.163 44.0743 188.306 44.3674 188.362 44.8254C188.411 45.2567 188.5 45.5273 188.65 45.7536ZM186.74 43.5884C186.845 43.5884 186.934 43.5884 187.005 43.5829C187.26 43.5611 187.492 43.4725 187.492 43.1522C187.492 42.8319 187.287 42.7433 187.033 42.7215C186.961 42.716 186.872 42.716 186.767 42.716H186.38V43.589H186.74V43.5884Z" fill="#5965E1"/>
<path d="M104.934 54.2748V50.1561H104.861C102.889 50.1561 101.284 48.5551 101.284 46.5871V44.4977C101.284 42.5297 102.888 40.9287 104.861 40.9287H119.719C121.691 40.9287 123.295 42.5297 123.295 44.4977V46.5871C123.295 48.5551 121.69 50.1561 119.719 50.1561H109.47L104.934 54.2748ZM104.861 41.3516C103.123 41.3516 101.709 42.7627 101.709 44.4971V46.5865C101.709 48.3209 103.123 49.732 104.861 49.732H105.358V53.3162L109.305 49.732H119.718C121.456 49.732 122.87 48.3209 122.87 46.5865V44.4971C122.87 42.7627 121.456 41.3516 119.718 41.3516H104.861Z" fill="#729DF8"/>
<path d="M111.149 45.6868C111.189 46.316 111.733 46.7928 112.363 46.7521C112.994 46.7121 113.472 46.1691 113.431 45.5406C113.39 44.9115 112.847 44.4347 112.217 44.4753C111.586 44.5154 111.108 45.0577 111.149 45.6868ZM115.565 45.614C115.565 46.2444 116.077 46.7552 116.709 46.7552C117.34 46.7552 117.852 46.2444 117.852 45.614C117.852 44.9837 117.34 44.4729 116.709 44.4729C116.077 44.4729 115.565 44.9837 115.565 45.614ZM106.73 45.6868C106.77 46.316 107.314 46.7928 107.944 46.7521C108.574 46.7121 109.052 46.1691 109.012 45.5406C108.971 44.9115 108.428 44.4347 107.797 44.4753C107.168 44.5154 106.689 45.0577 106.73 45.6868Z" fill="#729DF8"/>
<path opacity="0.2" d="M33.0396 63.8917V66.4287C33.0396 66.4287 35.1003 67.0293 37.262 65.3883V62.594L33.0396 63.8917Z" fill="#000141"/>
<path d="M31.1354 65.1961C28.5379 65.1961 25.9403 64.2096 23.9628 62.2355C20.0085 58.2886 20.0085 51.8658 23.9628 47.9194C27.9172 43.9718 34.3536 43.9718 38.3079 47.9194C38.8137 48.4242 38.8137 49.2414 38.3079 49.7461C37.8022 50.2508 36.9827 50.2508 36.4776 49.7461C35.0508 48.3223 33.153 47.5378 31.1354 47.5378C29.1178 47.5378 27.2199 48.3223 25.7932 49.7461C22.848 52.686 22.848 57.469 25.7932 60.4089C27.2199 61.8327 29.1178 62.6171 31.1354 62.6171C33.153 62.6171 35.0508 61.8327 36.4776 60.4089C38.79 58.1005 39.3547 54.5934 37.883 51.6814C37.5608 51.0444 37.8174 50.2672 38.455 49.9457C39.0939 49.6205 39.8714 49.8796 40.1942 50.5166C42.1717 54.4271 41.4137 59.1367 38.3085 62.2355C36.3305 64.209 33.7323 65.1961 31.1354 65.1961Z" fill="#729DF8"/>
<path d="M36.9998 49.2243C40.2386 52.4566 40.2386 57.6976 36.9998 60.9299C33.7609 64.1622 28.5093 64.1622 25.2705 60.9299C22.0316 57.6976 22.0316 52.4566 25.2705 49.2243C28.5093 45.9913 33.7603 45.9913 36.9998 49.2243Z" fill="white"/>
<path opacity="0.54" d="M33.8499 54.1469V58.2571C33.8499 58.9432 33.2949 59.4977 32.6104 59.4977H29.757C29.0731 59.4977 28.5181 58.9432 28.5181 58.2571V54.1469C28.5181 54.1026 28.5217 54.0626 28.5254 54.0219C28.5472 53.7872 28.6396 53.5633 28.7868 53.3801L30.2354 51.5449H32.1332L33.5818 53.3801C33.7289 53.5633 33.8207 53.7878 33.8432 54.0219C33.8463 54.0626 33.8499 54.1032 33.8499 54.1469Z" fill="#A0C5FF"/>
<path d="M33.8499 54.1467V57.7357H28.5181L28.5254 54.0217H33.8426C33.8463 54.0624 33.8499 54.103 33.8499 54.1467Z" fill="#5D74E4"/>
<path d="M32.4356 50.184V51.1401C32.4356 51.3664 32.2533 51.549 32.0259 51.549H30.3335C30.1068 51.549 29.9238 51.3664 29.9238 51.1401V50.1671C29.9342 49.9474 30.1135 49.7751 30.3335 49.7751H32.0259C32.2533 49.7751 32.4356 49.9578 32.4356 50.184Z" fill="#A0C5FF"/>
<path d="M31.6064 50.167H29.9243V50.2513H31.6064V50.167Z" fill="white"/>
<path d="M31.2921 50.4304H29.9243V50.5147H31.2921V50.4304Z" fill="white"/>
<path d="M31.6064 50.7144H29.9243V50.7987H31.6064V50.7144Z" fill="white"/>
<path d="M31.2921 50.9775H29.9243V51.0655H31.2921V50.9775Z" fill="white"/>
<path d="M32.8995 54.0217V57.7357H32.5737V54.1467C32.5737 54.1024 32.5713 54.0624 32.5688 54.0217H32.8995Z" fill="white"/>
<path opacity="0.2" d="M205.319 94.3232V97.1308C205.319 97.1308 204.009 97.9389 201.138 97.1308V93.6292L205.319 94.3232Z" fill="#000141"/>
<path d="M203.082 95.7489C200.407 95.7489 197.733 94.7328 195.697 92.7004C191.625 88.6364 191.625 82.0231 195.697 77.9596C199.769 73.895 206.396 73.895 210.467 77.9596C210.988 78.4789 210.988 79.321 210.467 79.8409C209.947 80.3608 209.103 80.3608 208.582 79.8409C207.113 78.3746 205.159 77.5677 203.082 77.5677C201.004 77.5677 199.051 78.3752 197.582 79.8409C194.55 82.8676 194.55 87.7925 197.582 90.8198C199.051 92.2861 201.005 93.0929 203.082 93.0929C205.159 93.0929 207.114 92.2855 208.582 90.8198C210.963 88.4434 211.545 84.832 210.029 81.8332C209.697 81.1774 209.961 80.3772 210.618 80.0466C211.277 79.7117 212.077 79.9786 212.409 80.6344C214.445 84.6609 213.664 89.51 210.467 92.701C208.431 94.7321 205.756 95.7489 203.082 95.7489Z" fill="#729DF8"/>
<path d="M209.12 79.3035C212.455 82.6317 212.455 88.028 209.12 91.3562C205.785 94.6843 200.378 94.6843 197.043 91.3562C193.708 88.028 193.708 82.6317 197.043 79.3035C200.378 75.9753 205.785 75.9753 209.12 79.3035Z" fill="url(#paint0_linear_4899_121535)"/>
<path d="M206.17 81.7785L204.741 86.5396C204.511 87.304 203.704 87.7438 202.937 87.5145C202.171 87.2852 201.739 86.4753 201.969 85.7103L203.398 80.9498C203.628 80.1854 204.435 79.7455 205.201 79.9749C205.967 80.2036 206.4 81.0141 206.17 81.7785Z" fill="#5965E1"/>
<path d="M206.17 81.7785L205.467 84.119L202.695 83.2903L203.398 80.9498C203.627 80.1854 204.435 79.7455 205.201 79.9749C205.967 80.2036 206.399 81.0141 206.17 81.7785Z" fill="#729DF8"/>
<path opacity="0.44" d="M202.695 83.2905L205.365 84.4644L205.467 84.1192L202.695 83.2905Z" fill="#BAF1EB"/>
<path opacity="0.49" d="M205.32 80.2837C205.563 80.4293 205.775 80.6428 205.905 80.9152C206.06 81.1901 205.967 81.548 205.896 81.7979C205.762 82.347 205.615 82.8918 205.458 83.4335C205.145 84.5182 204.808 85.5951 204.42 86.6567L204.415 86.6719L204.412 86.6755C204.281 86.8848 204.108 87.0523 203.894 87.1645C203.68 87.2773 203.421 87.2925 203.213 87.2015C203.438 87.2416 203.661 87.1894 203.833 87.0638C204.002 86.937 204.138 86.7586 204.233 86.5803L204.225 86.5985C204.487 85.4986 204.798 84.4139 205.135 83.337C205.303 82.7983 205.48 82.262 205.671 81.7306C205.777 81.4546 205.854 81.2283 205.77 80.965C205.697 80.7102 205.523 80.479 205.32 80.2837Z" fill="white"/>
<path d="M202.821 84.1234V89.0932C202.821 89.8916 202.174 90.5437 201.374 90.5437C200.574 90.5437 199.927 89.8916 199.927 89.0932V84.1234C199.927 83.325 200.574 82.6729 201.374 82.6729C202.174 82.6729 202.821 83.325 202.821 84.1234Z" fill="#5965E1"/>
<path d="M202.821 84.1234V86.5664H199.927V84.1234C199.927 83.325 200.574 82.6729 201.375 82.6729C202.174 82.6729 202.821 83.325 202.821 84.1234Z" fill="#729DF8"/>
<path opacity="0.44" d="M199.927 86.5664L202.823 86.9262L202.821 86.5664H199.927Z" fill="#BAF1EB"/>
<path opacity="0.49" d="M201.577 82.9348C201.852 83.0046 202.116 83.1478 202.319 83.3722C202.546 83.5906 202.56 83.9601 202.564 84.2203C202.593 84.7845 202.609 85.3487 202.615 85.9129C202.627 87.0413 202.614 88.1691 202.548 89.2975L202.547 89.3139L202.546 89.3176C202.48 89.556 202.363 89.7659 202.19 89.9345C202.018 90.1038 201.774 90.1924 201.548 90.1651C201.776 90.139 201.974 90.0249 202.103 89.8551C202.229 89.6852 202.308 89.4753 202.346 89.2775L202.345 89.2975C202.279 88.1691 202.265 87.0407 202.278 85.9129C202.284 85.3487 202.299 84.7845 202.329 84.2203C202.352 83.9255 202.36 83.6871 202.204 83.459C202.06 83.2351 201.827 83.0634 201.577 82.9348Z" fill="white"/>
<path d="M205.239 89.7035C204.994 90.0899 204.539 90.2568 204.121 90.1573C204.072 90.1482 204.026 90.1354 203.977 90.116C203.919 90.0954 203.858 90.0626 203.802 90.0286C203.74 89.9892 203.686 89.9443 203.635 89.8958C203.597 89.8606 203.565 89.8242 203.536 89.7842C203.275 89.4511 203.235 88.9785 203.477 88.5957C203.716 88.2165 204.164 88.0448 204.576 88.1352C204.626 88.1443 204.672 88.1571 204.72 88.1765C204.786 88.202 204.85 88.2311 204.912 88.2705C204.967 88.3051 205.024 88.3458 205.067 88.3894C205.105 88.4246 205.137 88.461 205.166 88.5011C205.437 88.8353 205.483 89.317 205.239 89.7035Z" fill="#5965E1"/>
<path d="M205.167 88.501C205.167 88.501 204.026 90.1359 203.977 90.1165C203.919 90.0959 203.858 90.0631 203.803 90.0291C203.74 89.9897 203.686 89.9448 203.635 89.8963C203.597 89.8611 204.576 88.1357 204.576 88.1357C204.626 88.1448 204.672 88.1576 204.721 88.177C204.786 88.2025 204.85 88.2316 204.913 88.271C204.967 88.3056 205.024 88.3463 205.067 88.3899C205.106 88.4245 205.138 88.4609 205.167 88.501Z" fill="#729DF8"/>
<path opacity="0.49" d="M205.068 88.3899L203.977 90.1165C203.919 90.0959 203.858 90.0631 203.803 90.0292C203.74 89.9897 203.686 89.9448 203.635 89.8963L204.72 88.177C204.786 88.2025 204.85 88.2316 204.913 88.271C204.968 88.305 205.024 88.3457 205.068 88.3899Z" fill="white"/>
<path d="M207.751 87.4873C207.842 88.0564 207.55 88.592 207.07 88.845C207.016 88.8778 206.961 88.9039 206.9 88.9251C206.827 88.9542 206.742 88.9736 206.661 88.9864C206.569 89.0009 206.481 89.0034 206.392 88.9997C206.326 88.9979 206.267 88.99 206.205 88.9767C205.682 88.8772 205.249 88.4622 205.16 87.8992C205.071 87.3417 205.351 86.8084 205.818 86.5512C205.872 86.5185 205.927 86.4924 205.988 86.4711C206.072 86.4402 206.157 86.4147 206.249 86.4002C206.329 86.388 206.417 86.3801 206.494 86.385C206.56 86.3868 206.619 86.3947 206.681 86.4087C207.215 86.5003 207.66 86.9183 207.751 87.4873Z" fill="#5965E1"/>
<path d="M206.681 86.4087C206.681 86.4087 206.961 88.9039 206.9 88.9251C206.827 88.9542 206.742 88.9736 206.662 88.9864C206.569 89.0009 206.481 89.0034 206.392 88.9997C206.327 88.9979 205.818 86.5512 205.818 86.5512C205.872 86.5185 205.927 86.4924 205.989 86.4711C206.072 86.4402 206.157 86.4147 206.249 86.4002C206.33 86.388 206.417 86.3801 206.494 86.385C206.56 86.3868 206.62 86.3947 206.681 86.4087Z" fill="#729DF8"/>
<path opacity="0.49" d="M206.495 86.385L206.9 88.9251C206.828 88.9542 206.743 88.9736 206.662 88.9864C206.57 89.0009 206.482 89.0034 206.393 88.9997L205.989 86.4711C206.073 86.4402 206.158 86.4147 206.249 86.4002C206.33 86.388 206.417 86.3801 206.495 86.385Z" fill="white"/>
<path d="M209.218 60.2287C209.41 60.2287 209.565 60.074 209.565 59.8829C209.565 59.6918 209.41 59.5371 209.218 59.5371C209.027 59.5371 208.872 59.6918 208.872 59.8829C208.872 60.074 209.027 60.2287 209.218 60.2287ZM209.218 62.8798C209.41 62.8798 209.565 62.7251 209.565 62.534C209.565 62.3429 209.41 62.1882 209.218 62.1882C209.027 62.1882 208.872 62.3429 208.872 62.534C208.872 62.7251 209.027 62.8798 209.218 62.8798ZM209.218 65.531C209.41 65.531 209.565 65.3763 209.565 65.1852C209.565 64.9941 209.41 64.8394 209.218 64.8394C209.027 64.8394 208.872 64.9941 208.872 65.1852C208.872 65.3763 209.027 65.531 209.218 65.531ZM209.218 68.1821C209.41 68.1821 209.565 68.0274 209.565 67.8363C209.565 67.6452 209.41 67.4905 209.218 67.4905C209.027 67.4905 208.872 67.6452 208.872 67.8363C208.872 68.0274 209.027 68.1821 209.218 68.1821ZM210.714 58.8425C210.905 58.8425 211.06 58.6878 211.06 58.4967C211.06 58.3056 210.905 58.1509 210.714 58.1509C210.522 58.1509 210.367 58.3056 210.367 58.4967C210.367 58.6878 210.523 58.8425 210.714 58.8425ZM210.714 61.4942C210.905 61.4942 211.06 61.3395 211.06 61.1484C211.06 60.9573 210.905 60.8026 210.714 60.8026C210.522 60.8026 210.367 60.9573 210.367 61.1484C210.367 61.3389 210.523 61.4942 210.714 61.4942ZM210.714 64.1453C210.905 64.1453 211.06 63.9907 211.06 63.7996C211.06 63.6085 210.905 63.4537 210.714 63.4537C210.522 63.4537 210.367 63.6085 210.367 63.7996C210.367 63.9907 210.523 64.1453 210.714 64.1453ZM210.714 66.7965C210.905 66.7965 211.06 66.6418 211.06 66.4507C211.06 66.2596 210.905 66.1049 210.714 66.1049C210.522 66.1049 210.367 66.2596 210.367 66.4507C210.367 66.6418 210.523 66.7965 210.714 66.7965Z" fill="#A0C5FF"/>
<path d="M22.675 124.942C22.9157 124.942 23.1103 124.747 23.1103 124.508C23.1103 124.267 22.9151 124.073 22.675 124.073C22.4349 124.073 22.2397 124.268 22.2397 124.508C22.2397 124.748 22.4343 124.942 22.675 124.942ZM22.675 128.273C22.9157 128.273 23.1103 128.078 23.1103 127.839C23.1103 127.599 22.9151 127.404 22.675 127.404C22.4349 127.404 22.2397 127.599 22.2397 127.839C22.2397 128.079 22.4343 128.273 22.675 128.273ZM22.675 131.604C22.9157 131.604 23.1103 131.41 23.1103 131.17C23.1103 130.93 22.9151 130.736 22.675 130.736C22.4349 130.736 22.2397 130.93 22.2397 131.17C22.2397 131.41 22.4343 131.604 22.675 131.604ZM22.675 134.936C22.9157 134.936 23.1103 134.741 23.1103 134.501C23.1103 134.261 22.9151 134.067 22.675 134.067C22.4349 134.067 22.2397 134.262 22.2397 134.501C22.2397 134.741 22.4343 134.936 22.675 134.936ZM24.554 123.201C24.7947 123.201 24.9893 123.006 24.9893 122.766C24.9893 122.527 24.7941 122.332 24.554 122.332C24.3139 122.332 24.1187 122.527 24.1187 122.766C24.1187 123.006 24.3133 123.201 24.554 123.201ZM24.554 126.532C24.7947 126.532 24.9893 126.337 24.9893 126.098C24.9893 125.858 24.7941 125.663 24.554 125.663C24.3139 125.663 24.1187 125.858 24.1187 126.098C24.1187 126.337 24.3133 126.532 24.554 126.532ZM24.554 129.863C24.7947 129.863 24.9893 129.668 24.9893 129.429C24.9893 129.189 24.7941 128.994 24.554 128.994C24.3139 128.994 24.1187 129.189 24.1187 129.429C24.1181 129.668 24.3133 129.863 24.554 129.863ZM24.554 133.194C24.7947 133.194 24.9893 133 24.9893 132.76C24.9893 132.52 24.7941 132.326 24.554 132.326C24.3139 132.326 24.1187 132.52 24.1187 132.76C24.1181 133 24.3133 133.194 24.554 133.194Z" fill="#A0C5FF"/>
<defs>
<linearGradient id="paint0_linear_4899_121535" x1="194.542" y1="85.3299" x2="211.621" y2="85.3299" gradientUnits="userSpaceOnUse">
<stop stop-color="#D1F4FF"/>
<stop offset="0.418" stop-color="#FBFEFE"/>
<stop offset="1" stop-color="#D1F4FF"/>
</linearGradient>
</defs>
</svg>
