<svg width="24" height="24" viewBox="0 0 24 24" fill="none" xmlns="http://www.w3.org/2000/svg">
<path d="M18 8H17V7C17 5.67392 16.4732 4.40215 15.5356 3.46447C14.5979 2.52678 13.3261 2 12 2C10.6739 2 9.40217 2.52678 8.46448 3.46447C7.5268 4.40215 7.00002 5.67392 7.00002 7V8H6.00002C5.7348 8 5.48045 8.10536 5.29291 8.29289C5.10537 8.48043 5.00002 8.73478 5.00002 9V16.764C4.99812 17.3216 5.15243 17.8686 5.44547 18.3429C5.73851 18.8173 6.15856 19.2001 6.65802 19.448L11.553 21.895C11.6919 21.9645 11.8452 22.0007 12.0005 22.0007C12.1559 22.0007 12.3091 21.9645 12.448 21.895L17.343 19.448C17.8423 19.2 18.2621 18.8171 18.555 18.3427C18.8478 17.8684 19.002 17.3215 19 16.764V9C19 8.73478 18.8947 8.48043 18.7071 8.29289C18.5196 8.10536 18.2652 8 18 8ZM9.00002 7C9.00002 6.20435 9.31609 5.44129 9.8787 4.87868C10.4413 4.31607 11.2044 4 12 4C12.7957 4 13.5587 4.31607 14.1213 4.87868C14.6839 5.44129 15 6.20435 15 7V8H9.00002V7ZM17 16.764C17.0008 16.95 16.9494 17.1324 16.8516 17.2907C16.7539 17.4489 16.6137 17.5765 16.447 17.659L12 19.882L7.55302 17.658C7.3865 17.5756 7.24641 17.4481 7.14867 17.2901C7.05092 17.1321 6.99942 16.9498 7.00002 16.764V10H17V16.764Z" fill="#303ED9"/>
<path d="M12 12C11.7348 12 11.4804 12.1054 11.2929 12.2929C11.1054 12.4804 11 12.7348 11 13V15C11 15.2652 11.1054 15.5196 11.2929 15.7071C11.4804 15.8946 11.7348 16 12 16C12.2652 16 12.5196 15.8946 12.7071 15.7071C12.8946 15.5196 13 15.2652 13 15V13C13 12.7348 12.8946 12.4804 12.7071 12.2929C12.5196 12.1054 12.2652 12 12 12Z" fill="#303ED9"/>
</svg>
