<svg width="202" height="148" viewBox="0 0 202 148" fill="none" xmlns="http://www.w3.org/2000/svg">
<path d="M2.47372 132.995C2.1423 132.995 1.58003 124.396 1.5248 123.695C-0.110908 102.94 -0.0958886 80.1945 3.85837 60.5899C6.53972 47.2952 11.2777 36.6984 16.9511 28.9436C23.2226 20.371 30.4551 16.7052 37.8292 16C46.3148 15.1882 54.738 17.7556 63.1993 18.5284C71.8674 19.3192 80.4422 16.5312 88.9088 12.8143C96.4434 9.50864 103.932 5.65376 111.544 3.21988C118.982 0.760498 126.732 -0.80307 134.257 0.43187C140.398 1.43874 146.28 5.16757 151.473 12.3206C156.27 18.929 160.27 27.9968 165.331 33.7513C168.133 36.937 171.185 38.8862 174.338 39.6214C177.352 40.3252 180.332 39.932 183.305 41.4746C187.963 43.892 192.09 49.561 195.113 57.4973C200.999 72.9454 202.723 95.1518 200.672 114.312C199.962 120.936 198.765 127.388 196.954 132.995C192.596 132.995 3.28958 132.995 2.47372 132.995Z" fill="#DCE6FD"/>
<path d="M75.2431 41.34C74.5409 39.6222 72.8558 38.4105 70.8863 38.4105C69.4626 38.4105 68.1897 39.0454 67.3262 40.0448C66.1417 37.3483 63.4529 35.4634 60.3209 35.4634C59.2153 35.4634 58.1672 35.7028 57.2182 36.125C55.6284 33.59 52.8185 31.8992 49.6071 31.8992C44.9426 31.8992 41.1095 35.4553 40.6636 40.0062C39.8011 39.0296 38.5437 38.4105 37.1388 38.4105C35.1692 38.4105 33.4842 39.6222 32.7817 41.34H75.2431Z" fill="#5965E1"/>
<path d="M59.2729 62.8043C59.2729 62.8043 63.6343 63.8696 65.241 67.2442C66.8475 70.6184 73.0766 72.7733 73.0766 72.7733C73.0766 72.7733 73.883 78.4772 73.0766 78.3779C72.2702 78.2782 61.2363 75.3455 59.745 73.4293C58.254 71.5135 59.2729 62.8043 59.2729 62.8043Z" fill="#ACB2F0"/>
<path d="M93.2907 14.7187C93.2907 14.7187 99.9684 16.8581 109.146 16.7914C112.995 16.7637 111.966 17.1284 112.392 19.1169C112.818 21.1053 107.598 23.0899 102.985 22.9478C98.3714 22.8056 92.7681 22.4872 91.9164 20.7827C91.0645 19.0779 93.2907 14.7187 93.2907 14.7187Z" fill="#1D2582"/>
<path d="M80.6977 30.643C80.6977 30.643 74.4728 20.4763 76.7576 18.5458C80.8089 15.1231 90.8991 13.3003 93.7732 14.9335C94.6504 15.432 94.1808 19.0691 93.9152 19.8835C90.1713 31.3724 99.7904 31.3885 91.9163 32.311C84.0418 33.2331 80.6977 30.643 80.6977 30.643Z" fill="#1D2582"/>
<path d="M83.2256 12.011L81.5381 15.9971C81.5381 15.9971 82.55 17.4931 84.1239 17.0024C85.6981 16.512 86.1263 15.2034 86.1263 15.2034L83.2256 12.011Z" fill="#FAB590"/>
<path d="M83.3764 12.21C83.3764 12.21 83.0663 12.1974 82.9842 12.0268C82.9021 11.8562 83.3195 10.1103 83.4872 10.0345C83.6552 9.95829 83.9772 9.9762 84.1098 10.2588C84.2427 10.5413 83.3764 12.21 83.3764 12.21Z" fill="#FCD2B4"/>
<path d="M89.9683 10.2205C89.9683 10.2205 90.0339 11.3753 89.8322 12.0243C89.6309 12.6737 88.7144 12.9075 88.0223 14.7717C87.8813 15.1518 86.3485 16.5492 85.6982 16.512C84.7694 16.4587 83.9616 16.0273 83.7231 15.8146C83.4846 15.6015 82.8227 15.1936 83.1352 12.4119C83.2331 11.5403 85.0114 7.37522 85.3513 7.2973C85.6915 7.21972 90.116 8.09304 89.9683 10.2205Z" fill="#FCD2B4"/>
<path d="M85.3511 7.29731C85.3511 7.29731 84.9656 7.00667 84.3911 7.84137C83.9976 8.41212 83.6801 10.753 83.6615 10.9204C83.6429 11.0886 83.5903 11.4157 83.5903 11.4157C83.5903 11.4157 83.9106 11.2704 84.0867 11.0605C84.2631 10.8509 84.5076 9.44444 85.2617 8.79261C86.0162 8.14079 86.5265 7.92842 86.1663 7.52511C85.8061 7.12145 85.3511 7.29731 85.3511 7.29731Z" fill="#1D2582"/>
<path d="M89.3884 7.84697C88.3596 6.83501 86.6739 6.71041 85.9639 6.88802C85.2544 7.06563 85.1123 7.79047 85.1123 7.79047L85.7433 8.18008C85.462 8.3412 85.307 8.55111 85.2617 8.7926C84.7458 11.5694 87.9811 12.6011 89.7668 12.6281C90.9145 12.6453 91.1274 11.6646 91.1274 11.6646C91.1274 11.6646 90.4175 8.85894 89.3884 7.84697Z" fill="#1D2582"/>
<path d="M84.124 10.085C84.124 10.085 85.3159 10.2749 85.8711 9.51464C86.4264 8.75401 85.2454 8.19836 85.1125 8.25663C84.9795 8.31525 84.124 10.085 84.124 10.085Z" fill="#1D2582"/>
<path d="M35.2661 121.191H176.972C176.972 121.191 175.788 113.07 168.422 113.421C161.056 113.772 164.416 104.749 155.137 96.1779C148.297 89.8598 133.648 89.7411 125.165 98.0365C116.683 106.331 76.9693 95.5637 65.4129 101.882C53.8562 108.2 58.416 114.167 49.9979 113.114C41.5797 112.061 35.9676 116.982 35.2661 121.191Z" fill="#5965E1"/>
<path d="M109.146 16.7914V17.8227C109.146 17.8227 110.176 18.8901 110.682 18.9951C111.189 19.0997 112.498 19.1172 112.498 19.1172C112.498 19.1172 112.707 18.6103 112.288 18.4882C111.869 18.3657 111.171 18.1105 111.171 18.1105L111.031 17.8227H115.03C115.03 17.8227 115.03 17.5271 114.82 17.4401C114.611 17.3523 112.847 16.8107 112.585 16.776C112.323 16.7409 109.146 16.7914 109.146 16.7914Z" fill="#FCD2B4"/>
<path d="M77.4912 124.913C77.4912 126.202 69.3933 127.245 59.404 127.245C49.4146 127.245 41.3167 126.202 41.3167 124.913C41.3167 123.625 49.4146 122.581 59.404 122.581C69.3933 122.581 77.4912 123.625 77.4912 124.913Z" fill="#5965E1"/>
<path d="M167.557 124.913C167.557 126.202 159.459 127.245 149.469 127.245C139.48 127.245 131.382 126.202 131.382 124.913C131.382 123.625 139.48 122.581 149.469 122.581C159.459 122.581 167.557 123.625 167.557 124.913Z" fill="#5965E1"/>
<path d="M153.465 12.6281C153.465 14.533 151.922 16.0771 150.018 16.0771C148.115 16.0771 146.572 14.533 146.572 12.6281C146.572 10.7235 148.115 9.17942 150.018 9.17942C151.922 9.17942 153.465 10.7235 153.465 12.6281Z" fill="#303ED9"/>
<path d="M163.659 16.7553C162.236 16.7553 160.963 17.3902 160.099 18.3892C158.915 15.6931 156.226 13.8082 153.094 13.8082C151.989 13.8082 150.94 14.0472 149.991 14.4695C148.402 11.9345 145.592 10.2437 142.38 10.2437C137.716 10.2437 133.883 13.8001 133.437 18.3506C132.574 17.3741 131.317 16.7553 129.912 16.7553C127.942 16.7553 126.257 17.9666 125.555 19.6844H168.016C167.314 17.9666 165.629 16.7553 163.659 16.7553Z" fill="#5965E1"/>
<path d="M140.313 120.488V26.0848C140.313 25.6965 139.998 25.382 139.611 25.382H70.0443C69.6563 25.382 69.342 25.6965 69.342 26.0848V120.488C69.342 120.876 69.6563 121.191 70.0443 121.191H139.611C139.998 121.191 140.313 120.876 140.313 120.488Z" fill="#729DF8"/>
<path d="M73.6868 117.67V29.7297H136.794V117.67H73.6868Z" fill="#729DF8"/>
<path d="M73.6868 116.843V29.7296H135.968V116.843H73.6868Z" fill="white"/>
<path d="M104.824 22.5252C104.214 22.5252 103.716 22.0306 103.716 21.4163C103.716 20.8021 104.214 20.3036 104.824 20.3036C105.438 20.3036 105.936 20.8021 105.936 21.4163C105.936 22.0306 105.438 22.5252 104.824 22.5252ZM117.259 25.3827L117.143 24.7966L117.087 24.5192L116.904 23.5961L116.087 19.4752C115.884 18.4464 115.337 17.7553 114.723 17.7553H94.9331C94.3193 17.7553 93.7721 18.4464 93.5651 19.4752L92.7479 23.5961L92.5655 24.5192L92.5094 24.7966L92.3936 25.3827L92.0955 26.8886H117.561L117.259 25.3827Z" fill="#729DF8"/>
<path d="M117.259 25.3827H92.3938L92.5096 24.7966L92.5657 24.5192H117.087L117.143 24.7966L117.259 25.3827Z" fill="#729DF8"/>
<path d="M116.683 61.3142H80.4368V55.2396H116.683V61.3142Z" fill="#5965E1"/>
<path d="M128.22 61.3539H122.11V55.2396H128.22V61.3539Z" fill="#5965E1"/>
<path d="M116.683 76.3199H80.4368V70.2457H116.683V76.3199Z" fill="#5965E1"/>
<path d="M128.22 76.3599H122.11V70.2457H128.22V76.3599Z" fill="#5965E1"/>
<path d="M116.683 91.3256H80.4368V85.2513H116.683V91.3256Z" fill="#5965E1"/>
<path d="M128.22 91.3656H122.11V85.2513H128.22V91.3656Z" fill="#5965E1"/>
<path d="M116.683 106.331H80.4368V100.257H116.683V106.331Z" fill="#5965E1"/>
<path d="M128.22 106.372H122.11V100.257H128.22V106.372Z" fill="#5965E1"/>
<path d="M118.427 39.9205L82.8409 46.8108L81.688 40.8472L117.274 33.9569L118.427 39.9205Z" fill="#5965E1"/>
<path d="M80.6315 18.828C79.9889 17.5805 77.2264 17.2056 75.9454 19.5581C73.2169 24.5698 75.1212 30.8304 76.6101 33.9719C78.5379 38.0402 88.2612 40.3839 88.2612 40.3839C88.2612 40.3839 89.2549 36.9036 89.184 36.6196C89.1128 36.3357 80.9511 33.7312 81.8451 25.2132C82.1489 22.3219 81.3639 20.2496 80.6315 18.828Z" fill="#1D2582"/>
<path d="M88.4614 39.6702C88.4614 39.6702 89.1486 40.1353 90.0356 40.3838C90.9227 40.6324 92.8743 40.0792 92.9455 39.9121C93.0163 39.7447 92.8964 37.3792 92.5481 37.2125C92.2001 37.0457 89.184 36.6196 89.184 36.6196L88.4614 39.6702Z" fill="#FCD2B4"/>
<path d="M159.234 108.434H139.705C139.127 108.434 138.655 107.961 138.655 107.383C138.655 106.804 139.127 106.331 139.705 106.331H159.234C159.812 106.331 160.284 106.804 160.284 107.383C160.284 107.961 159.812 108.434 159.234 108.434Z" fill="#5965E1"/>
<path d="M143.913 123.995H141.896V108.434H143.913V123.995Z" fill="#1D2582"/>
<path d="M157.154 123.995H155.137V108.434H157.154V123.995Z" fill="#1D2582"/>
<path d="M42.8708 80.168C42.8708 80.168 44.3621 81.6233 45.5921 81.6977C46.8223 81.7725 47.9779 80.704 47.9779 80.704L46.1513 79.161L42.8708 80.168Z" fill="#FAB391"/>
<path d="M64.5282 122.108C64.072 122.073 63.9766 122.45 62.5959 122.021C62.5721 122.015 62.5481 122.01 62.5243 122C62.5243 122 58.7667 102.499 56.262 93.34C55.2839 103.653 53.8902 122 53.8902 122C53.8663 122.01 53.8455 122.015 53.8217 122.021C52.4408 122.45 52.3425 122.073 51.8862 122.108C51.6656 122.124 49.1256 101.546 50.3156 87.8207L62.0476 87.3307C63.9293 101.046 64.7639 122.124 64.5282 122.108Z" fill="#1D2582"/>
<path d="M62.5537 121.523C62.5537 121.523 62.4888 123.22 62.6442 123.758C62.7997 124.295 64.0431 124.371 64.3897 124.524C64.7363 124.676 65.4963 125.047 67.3287 125.263C67.8457 125.323 67.9145 124.952 67.2936 124.636C65.2308 123.584 64.5668 121.799 64.5668 121.799L62.5537 121.523Z" fill="#0A0C2B"/>
<path d="M53.8915 121.523C53.8915 121.523 53.9562 123.22 53.801 123.758C53.6456 124.295 52.4022 124.371 52.0556 124.524C51.7089 124.676 50.9486 125.047 49.1167 125.263C48.5995 125.323 48.5307 124.952 49.1516 124.636C51.2146 123.584 51.8784 121.799 51.8784 121.799L53.8915 121.523Z" fill="#0A0C2B"/>
<path d="M63.305 86.8372C63.2812 87.2732 62.9203 87.521 62.4997 87.6463C60.9878 88.0938 56.5443 88.4848 53.3623 88.5417C51.403 88.5772 49.921 88.488 49.8942 88.2104C49.7211 86.4135 49.5125 84.5542 49.2887 82.7013C48.1884 73.6315 46.6533 64.6397 47.4577 64.1865C50.987 62.197 55.4099 62.4129 59.2728 62.8043C60.7971 62.9584 62.6277 67.2442 62.5284 71.5935C62.403 77.0763 63.468 83.6879 63.305 86.8372Z" fill="#ACB2F0"/>
<path d="M53.1752 59.1453C53.1752 59.1453 52.8594 59.2275 52.725 59.0811C52.5907 58.9347 52.4776 57.0523 52.6229 56.9245C52.7682 56.7967 53.0976 56.7167 53.3173 56.9599C53.5368 57.2035 53.1752 59.1453 53.1752 59.1453Z" fill="#FCD2B4"/>
<path d="M54.5509 64.2768C54.1233 64.1427 53.7916 63.8492 53.5937 63.6348C53.4607 63.4905 53.3974 63.2964 53.4189 63.1016L53.7723 59.9246L57.7271 59.6726L57.7942 63.2199C57.2341 64.3308 55.6398 64.6179 54.5509 64.2768Z" fill="#FAB590"/>
<path d="M59.1934 55.1315C59.1934 55.1315 59.6509 55.7497 59.2169 56.909C58.5397 58.7182 59.0989 58.2994 58.6263 60.3009C58.5286 60.7151 57.6946 62.2869 56.9719 62.6993C56.1229 63.1834 54.9276 62.8032 54.6232 62.6621C54.3186 62.5213 53.529 62.3135 52.9941 59.4219C52.8265 58.5163 53.3429 53.7861 53.6612 53.6043C53.9792 53.4221 58.693 52.9483 59.1934 55.1315Z" fill="#FCD2B4"/>
<path d="M53.6613 53.6043C53.6613 53.6043 53.2531 53.5685 53.1873 54.2937C53.1216 55.0192 53.0358 57.5883 53.0684 57.7624C53.101 57.9365 53.0869 58.2994 53.0869 58.2994C53.0869 58.2994 53.3126 58.3019 53.4256 58.0376C53.5387 57.7729 53.4684 56.02 54.0278 55.1344C54.587 54.2488 55.035 53.8791 54.55 53.5839C54.0649 53.2884 53.6613 53.6043 53.6613 53.6043Z" fill="#1D2582"/>
<path d="M31.7776 74.9724L34.2729 67.9315L67.7359 79.9367L65.2402 86.9776L31.7776 74.9724Z" fill="#5965E1"/>
<path d="M32.4846 72.9776L33.5661 69.9262L67.0288 81.9315L65.9474 84.9828L32.4846 72.9776Z" fill="#303ED9"/>
<path d="M65.241 86.9776L67.7362 79.9367L71.9983 83.431L73.7973 84.9063L76.2603 86.9253L73.0765 86.9401L70.7506 86.9516L65.241 86.9776Z" fill="#FAB391"/>
<path d="M73.0764 86.94L73.7972 84.9063L76.2602 86.9253L73.0764 86.94Z" fill="#1D2582"/>
<path d="M33.0622 75.4283L30.4698 74.5087C29.4129 74.1335 28.8592 72.9713 29.2344 71.9123L30.5 68.3407C30.512 68.3084 30.5238 68.2762 30.537 68.246C30.8741 67.4502 31.7776 67.0473 32.603 67.3393L35.5571 68.3874L33.7699 73.4293L33.0622 75.4283Z" fill="#ACB2F0"/>
<path d="M33.77 73.4293L31.1814 72.5114C30.1244 72.1362 29.5706 70.974 29.9458 69.9147L30.5371 68.246C30.8742 67.4502 31.7777 67.0473 32.6031 67.3393L35.5572 68.3874L33.77 73.4293Z" fill="#F3EEF8"/>
<path d="M47.4577 64.1865C47.4577 64.1865 37.4165 71.7206 37.4971 73.8253C37.5775 75.9299 39.2255 78.9089 41.9016 80.4811C41.9016 80.4811 43.8621 81.3032 45.2062 79.7896C45.2062 79.7896 42.9645 75.6126 43.3182 75.2588C44.0141 74.5624 50.3639 71.6841 50.3639 71.6841C50.3639 71.6841 52.5666 64.3799 47.4577 64.1865Z" fill="#ACB2F0"/>
<path d="M53.7373 54.7268C53.7373 54.7268 53.835 56.7827 55.4034 56.0164C55.8911 55.7781 56.4828 55.9248 56.7949 56.3695C57.4094 57.2453 57.8194 57.7297 58.6391 57.1516C59.4593 56.5735 59.1724 57.9199 60.2235 57.4029C60.8922 57.074 60.7426 56.3857 60.3326 55.9687C60.2157 55.85 60.1631 55.6815 60.1752 55.5152C60.2216 54.8693 60.1838 53.3642 58.8627 53.1227C58.6674 53.0872 58.4896 53.0971 58.3349 53.1294C57.959 53.208 57.5737 53.0799 57.3479 52.7689C56.929 52.1918 56.1012 51.5028 54.6503 51.8843C51.4122 52.7359 52.7528 56.4675 53.0684 57.7623C53.2805 58.6321 53.7373 54.7268 53.7373 54.7268Z" fill="#1D2582"/>
<path d="M146.911 47.9846C146.911 47.9846 145.456 51.6418 146.988 53.1455C148.521 54.6489 151.248 52.7601 151.478 52.5291C151.709 52.2982 146.911 47.9846 146.911 47.9846Z" fill="#FCD2B4"/>
<path d="M146.823 74.2795C146.823 74.2795 141.451 73.005 141.592 74.4722C142.973 88.8913 144.623 106.256 144.794 106.373C145.42 106.798 146.045 106.192 146.066 106.182C146.066 106.182 148.316 78.295 146.823 74.2795Z" fill="#FAB391"/>
<path d="M154.307 75.0661C154.307 75.0661 149.204 72.9586 149.111 74.4301C148.2 88.8864 147.088 106.294 147.239 106.436C147.79 106.955 148.503 106.455 148.525 106.449C148.525 106.449 155.148 79.2673 154.307 75.0661Z" fill="#FAB391"/>
<path d="M153.679 55.7598C152.813 55.3565 151.704 54.9294 150.363 54.5826C150.511 54.4888 146.487 54.7475 146.849 54.6668C145.332 55.0627 144.226 55.5612 143.376 56.0108C142.893 56.2664 144.023 56.7876 144.089 57.3306L146.604 68.6275L142.617 72.0046C142.618 72.4795 143.394 72.867 144.004 72.8656L146.835 72.8586C147.851 72.774 148.371 72.3595 148.56 71.9569C148.82 72.2787 149.319 72.5655 150.148 72.6322H152.979C153.588 72.6322 153.221 73.9271 153.221 73.4521L151.085 68.5468L153.865 57.7357C153.987 56.9796 154.373 56.0831 153.679 55.7598Z" fill="#303ED9"/>
<path d="M144.987 60.1032C144.987 60.1032 141.589 69.2207 134.1 86.2798C134.1 86.2798 143.205 94.2168 160.475 88.7134C160.475 88.7134 158.187 73.1892 152.053 65.507L144.987 60.1032Z" fill="#303ED9"/>
<path d="M131.517 49.0759C130.697 47.5483 127.515 47.8305 127.515 47.5739C127.515 47.3173 127.566 47.0604 127.874 47.0092C128.182 46.9579 132.851 46.8038 133.006 47.0092C133.159 47.2145 133.485 48.303 133.485 48.303C133.485 48.303 131.767 49.5417 131.517 49.0759Z" fill="#FCD2B4"/>
<path d="M149.516 44.7753C149.516 44.7753 145.218 45.4686 147.065 49.9359C148.993 54.598 148.779 55.4601 147.642 59.5258C146.709 62.8636 146.275 66.7387 149.836 68.0371C153.428 69.3464 160.252 65.8412 158.608 59.6704C157.533 55.6359 156.815 56.4854 155.994 53.0128C155.45 50.7123 155.878 49.0117 154.779 47.0618C153.769 45.2717 152.107 44.3131 149.516 44.7753Z" fill="#1D2582"/>
<path d="M144.622 105.213C144.622 105.213 141.485 105.802 141.408 106.087C141.331 106.373 141.331 106.373 141.331 106.373H146.424C146.424 106.373 146.552 106.216 146.424 105.625C146.295 105.035 146.219 104.906 146.116 104.906C146.013 104.906 144.622 105.213 144.622 105.213Z" fill="#1D2582"/>
<path d="M147.501 105.213C147.501 105.213 144.365 105.802 144.288 106.087C144.211 106.373 144.211 106.373 144.211 106.373H149.304C149.304 106.373 149.432 106.216 149.304 105.625C149.175 105.035 149.099 104.906 148.996 104.906C148.893 104.906 147.501 105.213 147.501 105.213Z" fill="#1D2582"/>
<path d="M144.987 60.1032C144.987 60.1032 135.89 59.179 134.935 58.1776C133.98 57.1765 131.286 49.0633 131.517 49.0759C131.748 49.0889 133.912 48.0106 134.1 48.1647C134.288 48.3184 137.059 55.405 138.137 55.5591C139.214 55.7128 146.604 54.7324 146.604 54.7324L144.987 60.1032Z" fill="#303ED9"/>
<path d="M133.244 46.8193H127.134V40.705H133.244V46.8193Z" fill="#5965E1"/>
</svg>
