<svg width="48" height="48" viewBox="0 0 48 48" fill="none" xmlns="http://www.w3.org/2000/svg">
<rect width="48" height="48" rx="12" fill="#EAECFB"/>
<path d="M15.0927 21.4043H32.9166" stroke="#303ED9" stroke-width="1.5" stroke-linecap="round" stroke-linejoin="round"/>
<path d="M28.4421 25.3097H28.4514" stroke="#303ED9" stroke-width="1.5" stroke-linecap="round" stroke-linejoin="round"/>
<path d="M24.0046 25.3097H24.0139" stroke="#303ED9" stroke-width="1.5" stroke-linecap="round" stroke-linejoin="round"/>
<path d="M19.5579 25.3097H19.5672" stroke="#303ED9" stroke-width="1.5" stroke-linecap="round" stroke-linejoin="round"/>
<path d="M28.4421 29.1962H28.4514" stroke="#303ED9" stroke-width="1.5" stroke-linecap="round" stroke-linejoin="round"/>
<path d="M24.0046 29.1962H24.0139" stroke="#303ED9" stroke-width="1.5" stroke-linecap="round" stroke-linejoin="round"/>
<path d="M19.5579 29.1962H19.5672" stroke="#303ED9" stroke-width="1.5" stroke-linecap="round" stroke-linejoin="round"/>
<path d="M28.0438 14V17.2908" stroke="#303ED9" stroke-width="1.5" stroke-linecap="round" stroke-linejoin="round"/>
<path d="M19.9655 14V17.2908" stroke="#303ED9" stroke-width="1.5" stroke-linecap="round" stroke-linejoin="round"/>
<path fill-rule="evenodd" clip-rule="evenodd" d="M28.2383 15.5792H19.771C16.8343 15.5792 15 17.2152 15 20.2222V29.2719C15 32.3263 16.8343 34 19.771 34H28.229C31.175 34 33 32.3546 33 29.3475V20.2222C33.0092 17.2152 31.1842 15.5792 28.2383 15.5792Z" stroke="#303ED9" stroke-width="1.5" stroke-linecap="round" stroke-linejoin="round"/>
</svg>
