<svg width="293" height="182" viewBox="0 0 293 182" fill="none" xmlns="http://www.w3.org/2000/svg">
<path d="M3.3673 181.75C2.88583 181.75 2.069 169.998 1.98876 169.041C-0.387489 140.676 -0.365669 109.593 5.37883 82.8017C9.27412 64.6332 16.1571 50.1517 24.3991 39.5541C33.5099 27.8389 44.0168 22.8292 54.7296 21.8654C67.0569 20.756 79.2936 24.2646 91.5856 25.3207C104.178 26.4014 116.635 22.5913 128.935 17.5119C139.88 12.9944 150.759 7.72637 161.818 4.40026C172.624 1.03929 183.882 -1.09747 194.814 0.59019C203.735 1.96616 212.28 7.06196 219.824 16.8373C226.793 25.8682 232.604 38.2601 239.956 46.1243C244.026 50.4777 248.461 53.1415 253.041 54.1463C257.419 55.1081 261.749 54.5708 266.067 56.6788C272.834 59.9824 278.83 67.7296 283.221 78.5754C291.772 99.6865 294.277 130.034 291.297 156.218C290.266 165.27 288.526 174.087 285.896 181.75C279.565 181.75 4.55252 181.75 3.3673 181.75" fill="#DCE6FD"/>
<path d="M194.81 74.7505H177.041C176.225 74.7505 175.558 74.0821 175.558 73.2661V56.1162C175.558 55.3002 176.225 54.6318 177.041 54.6318H194.81C195.626 54.6318 196.294 55.3002 196.294 56.1162V73.2661C196.294 74.0821 195.626 74.7505 194.81 74.7505Z" fill="#838BE8"/>
<path d="M194.041 73.8791H177.811C177.066 73.8791 176.456 73.2681 176.456 72.5239V56.8583C176.456 56.1141 177.066 55.5032 177.811 55.5032H194.041C194.786 55.5032 195.396 56.1141 195.396 56.8583V72.5239C195.396 73.2681 194.786 73.8791 194.041 73.8791Z" fill="#F0F6FF"/>
<path d="M185.496 57.3402C185.496 57.1024 185.688 56.9117 185.925 56.9117C186.163 56.9117 186.355 57.1024 186.355 57.3402C186.355 57.578 186.163 57.7708 185.925 57.7708C185.688 57.7708 185.496 57.578 185.496 57.3402Z" fill="#ACB2F0"/>
<path d="M188.962 57.947C189.078 57.7399 189.339 57.6661 189.546 57.7809C189.754 57.8957 189.829 58.1582 189.713 58.3652C189.598 58.5723 189.337 58.6461 189.129 58.5313C188.922 58.4165 188.847 58.1541 188.962 57.947Z" fill="#ACB2F0"/>
<path d="M191.931 60.3068C192.131 60.1776 192.396 60.2351 192.525 60.4339C192.654 60.6348 192.596 60.8993 192.397 61.0285C192.198 61.1576 191.932 61.1002 191.803 60.8993C191.674 60.7004 191.732 60.436 191.931 60.3068" fill="#ACB2F0"/>
<path d="M193.402 63.9582C193.64 63.9582 193.832 64.1509 193.832 64.3867C193.832 64.6245 193.64 64.8172 193.402 64.8172C193.165 64.8172 192.973 64.6245 192.973 64.3867C192.973 64.1509 193.165 63.9582 193.402 63.9582Z" fill="#ACB2F0"/>
<path d="M192.651 68.196C192.819 68.3621 192.819 68.6348 192.651 68.8029C192.483 68.971 192.212 68.971 192.044 68.8029C191.876 68.6348 191.876 68.3621 192.044 68.196C192.212 68.0279 192.483 68.0279 192.651 68.196Z" fill="#ACB2F0"/>
<path d="M189.954 70.9002C190.122 71.0684 190.122 71.339 189.954 71.5071C189.786 71.6752 189.514 71.6752 189.346 71.5071C189.179 71.339 189.179 71.0684 189.346 70.9002C189.514 70.7321 189.786 70.7321 189.954 70.9002Z" fill="#ACB2F0"/>
<path d="M185.496 72.2944C185.496 72.0565 185.688 71.8638 185.925 71.8638C186.163 71.8638 186.355 72.0565 186.355 72.2944C186.355 72.5301 186.163 72.7228 185.925 72.7228C185.688 72.7228 185.496 72.5301 185.496 72.2944Z" fill="#ACB2F0"/>
<path d="M182.875 57.947C182.76 57.7399 182.499 57.6661 182.291 57.7809C182.084 57.8957 182.009 58.1582 182.125 58.3652C182.24 58.5723 182.501 58.6461 182.709 58.5313C182.916 58.4165 182.991 58.1541 182.875 57.947Z" fill="#ACB2F0"/>
<path d="M179.907 60.3068C179.707 60.1776 179.441 60.2351 179.313 60.4339C179.184 60.6348 179.242 60.8993 179.441 61.0285C179.64 61.1576 179.906 61.1002 180.035 60.8993C180.163 60.7004 180.106 60.436 179.907 60.3068" fill="#ACB2F0"/>
<path d="M178.436 63.9582C178.198 63.9582 178.006 64.1509 178.006 64.3867C178.006 64.6245 178.198 64.8172 178.436 64.8172C178.673 64.8172 178.865 64.6245 178.865 64.3867C178.865 64.1509 178.673 63.9582 178.436 63.9582Z" fill="#ACB2F0"/>
<path d="M179.186 68.196C179.019 68.3621 179.019 68.6348 179.186 68.8029C179.354 68.971 179.626 68.971 179.794 68.8029C179.962 68.6348 179.962 68.3621 179.794 68.196C179.626 68.0279 179.354 68.0279 179.186 68.196Z" fill="#ACB2F0"/>
<path d="M181.884 70.9002C181.716 71.0684 181.716 71.339 181.884 71.5071C182.051 71.6752 182.323 71.6752 182.491 71.5071C182.659 71.339 182.659 71.0684 182.491 70.9002C182.323 70.7321 182.051 70.7321 181.884 70.9002Z" fill="#ACB2F0"/>
<path d="M185.81 64.3867C185.81 64.1509 186.002 63.9582 186.239 63.9582C186.477 63.9582 186.669 64.1509 186.669 64.3867C186.669 64.6245 186.477 64.8172 186.239 64.8172C186.002 64.8172 185.81 64.6245 185.81 64.3867Z" fill="#ACB2F0"/>
<path d="M186.298 64.3867H186.181V59.0213H186.298V64.3867Z" fill="#ACB2F0"/>
<path d="M186.294 64.5179L186.077 64.2412L188.922 62.0085L189.139 62.2853L186.294 64.5179" fill="#ACB2F0"/>
<path d="M151.116 181.687H148.535V73.0795H93.2947V181.687H90.6396V71.138H151.116V181.687Z" fill="#729DF8"/>
<path d="M148.535 181.687H93.2949V73.0795H148.535V181.687ZM141.607 124.199C140.258 124.199 139.165 125.292 139.165 126.641C139.165 127.99 140.258 129.083 141.607 129.083C142.956 129.083 144.049 127.99 144.049 126.641C144.049 125.292 142.956 124.199 141.607 124.199Z" fill="#95B5FA"/>
<path d="M141.607 129.083C140.258 129.083 139.165 127.99 139.165 126.641C139.165 125.292 140.258 124.199 141.607 124.199C142.956 124.199 144.049 125.292 144.049 126.641C144.049 127.99 142.956 129.083 141.607 129.083" fill="#B9CEFB"/>
<path d="M171.961 143.756L167.559 122.022C166.994 119.08 169.433 116.388 172.599 116.462L181.087 116.654C184.015 116.722 186.561 118.682 187.375 121.495L193.814 143.756H171.961Z" fill="#ED7D2B"/>
<path d="M191.239 95.968C189.755 95.1889 187.498 95.0844 187.131 95.0352C182.742 94.4447 180.1 100.823 179.945 102.756C179.658 106.317 177.774 106.861 175.121 109.091C169.803 113.565 171.363 118.762 174.271 120.693C176.016 121.852 179.091 120.693 179.091 120.693C179.135 120.724 187.502 116.015 191.627 113.745C197.81 112.866 195.02 97.9546 191.239 95.968Z" fill="#233862"/>
<path d="M190.324 111.549C190.343 111.56 188.374 112.456 186.952 111.986C185.614 111.545 184.436 109.532 184.455 109.53C185.036 109.446 185.626 108.872 185.791 105.479L186.048 105.544L190.37 106.635C190.37 106.635 190.199 108.005 190.129 109.3C190.069 110.387 190.081 111.422 190.324 111.549" fill="#FECECC"/>
<path d="M191.292 106.807C191.292 106.807 185.576 107.738 185.051 104.171C184.526 100.602 183.435 98.3196 187.062 97.5734C190.689 96.8291 191.6 98.0859 192.065 99.234C192.53 100.384 192.765 106.475 191.292 106.807Z" fill="#FECECC"/>
<path d="M191.297 97.4237C191.297 97.4237 188.701 101.522 186.384 102.492C184.067 103.464 182.929 102.969 182.929 102.969C182.929 102.969 183.983 101.372 184.257 99.2258C184.338 98.5923 184.751 98.051 185.343 97.8132C187.006 97.1469 190.222 96.0972 191.297 97.4237Z" fill="#233862"/>
<path d="M189.018 97.8214C189.018 97.8214 190.539 98.6005 191.166 99.3324C191.77 100.038 192.468 101.951 192.419 102.812C192.419 102.812 193.169 98.6907 191.606 97.2761C189.948 95.7733 189.018 97.8214 189.018 97.8214" fill="#233862"/>
<path d="M194.896 120.269C194.722 131.885 199.005 128.634 197.734 129.737C197.427 130.001 196.174 131.98 191.447 132.215C187.882 132.392 181.452 130.709 181.214 130.05C180.392 127.773 180.973 127.065 180.287 123.578C180.215 123.207 180.127 122.805 180.023 122.368C179.452 119.972 178.895 119.158 180.923 115.31C182.762 111.822 184.925 108.991 185.097 109.093C189.949 111.974 190.115 109.559 190.115 109.559C190.115 109.559 194.981 114.6 194.896 120.269Z" fill="white"/>
<path d="M190.115 109.559C190.115 109.559 195.081 110.401 195.668 112.55C196.254 114.701 201.984 130.967 201.984 130.967C201.984 130.967 195.873 131.135 194.701 129.962C193.528 128.79 191.913 115.742 191.913 115.742L190.115 109.559" fill="#303ED9"/>
<path d="M191.277 128.322L193.419 129.362C193.419 129.362 193.327 129.511 193.064 129.499C192.8 129.487 192.135 129.245 192.135 129.245L191.277 128.322" fill="#FECECC"/>
<path d="M190.16 108.8L190.115 109.559C190.68 111.5 191.634 117.497 192.823 122.137L193.654 115.492L192.97 114.934L193.227 113.995L190.988 109.745L190.16 108.8" fill="#B9CEFB"/>
<path d="M180.879 122.325C180.751 122.528 180.746 126.465 184.455 127.428C188.165 128.392 179.023 129.329 179.023 129.329C179.023 129.329 176.075 127.067 176.118 126.512C176.16 125.956 180.879 122.325 180.879 122.325Z" fill="#B9CEFB"/>
<path d="M187.196 128.794C187.196 128.794 190.711 128.01 191.278 128.322C191.845 128.634 193.231 129.77 193.405 130.165C193.578 130.561 192.142 129.866 191.675 129.741C191.373 129.659 190.576 129.936 190.182 130.067C188.523 130.62 187.507 130.335 187.507 130.335L187.196 128.794" fill="#FECECC"/>
<path d="M185.097 109.093C185.097 109.093 180.123 109.384 178.489 111.662C176.19 114.871 171.628 128.539 174.242 130.362C177.187 132.416 187.643 130.899 187.643 130.899C187.643 130.899 187.991 129.273 187.507 128.486C187.022 127.701 179.155 126.43 178.792 126.065C178.429 125.702 183.331 118.986 183.331 117.897C183.331 116.806 185.097 109.093 185.097 109.093" fill="#303ED9"/>
<path d="M185.383 108.454L186.391 121.425L184.084 116.46L184.48 115.576C184.48 115.576 183.636 114.123 183.636 113.952C183.636 113.78 183.876 109.233 183.876 109.233L185.383 108.454" fill="#B9CEFB"/>
<path d="M191.177 130.391H197.799V129.962H191.177V130.391Z" fill="#131957"/>
<path d="M218.431 127.066H198.267L201.93 113.516H222.094L218.431 127.066Z" fill="#131957"/>
<path d="M219.067 127.066H198.903L202.567 113.516H222.731L219.067 127.066Z" fill="#2632AE"/>
<path d="M210.478 130.354L206.25 130.391L209.177 121.47L213.405 121.431L210.478 130.354Z" fill="#131957"/>
<path d="M203.64 129.966H212.874V130.391H203.64V129.966Z" fill="#131957"/>
<path d="M237.215 181.865H123.25V133.152H237.215V181.865Z" fill="#5965E1"/>
<path d="M240.879 134.381H119.585V130.397H240.879V134.381Z" fill="white"/>
<path d="M237.215 173.24H123.25V165.373H237.215V173.24" fill="white"/>
<path d="M197.034 37.2482H150.965V33.1253H197.034V37.2482Z" fill="white"/>
<path d="M157.52 22.6569V33.1252H157.948V22.6159L157.52 22.6569Z" fill="white"/>
<path d="M190.53 21.6892V33.1252H190.102V21.681C190.245 21.6831 190.387 21.6872 190.53 21.6892" fill="white"/>
<path d="M73.3324 167.647C73.3324 167.647 71.0804 165.021 73.1936 163.352C73.1936 163.352 74.7372 162.417 75.9956 162.493C75.9956 162.493 74.2123 165.484 74.7892 165.781C75.3662 166.079 76.5362 162.306 76.5362 162.306C76.5362 162.306 80.0488 161.966 81.1789 162.507C81.1789 162.507 78.176 164.965 78.8084 165.111C79.4407 165.259 82.6841 162.846 82.6841 162.846C82.6841 162.846 85.9534 163.403 85.7791 165.396C85.6049 167.391 84.4783 168.008 83.9832 167.955C83.488 167.901 80.5919 166.796 80.529 167.2C80.4658 167.606 82.2091 168.933 83.43 168.994C83.43 168.994 81.125 171.536 79.5933 170.802C78.0613 170.068 77.9305 168.906 76.9758 168.469C76.0208 168.035 75.2058 168.035 75.6001 168.479C75.9943 168.924 77.7225 169.357 78.2684 170.323C78.8144 171.288 79.3046 171.94 77.7196 171.702C76.1348 171.463 73.5585 170.304 73.4455 168.976C73.3323 167.647 73.3324 167.647 73.3324 167.647" fill="#838BE8"/>
<path d="M84.1731 165.451C84.1731 165.451 75.2937 165.109 73.3326 167.647C73.3326 167.647 72.899 168.947 71.5645 170.13L71.3564 170.696C71.3564 170.696 72.8951 169.074 73.4458 168.976C73.4458 168.976 72.5847 165.831 84.1731 165.451Z" fill="#838BE8"/>
<path d="M71.5647 170.13C71.5647 170.13 69.6588 171.538 69.5264 174.058L69.8722 174.089C69.8722 174.089 70.4809 171.485 71.5813 170.466C72.6814 169.447 71.5647 170.13 71.5647 170.13" fill="#838BE8"/>
<path d="M65.4589 164.344C65.4589 164.344 69.0412 162.337 67.3694 159.614C67.3694 159.614 66.0319 157.944 64.599 157.513C64.599 157.513 65.3633 161.574 64.599 161.669C63.8347 161.765 64.0735 157.082 64.0735 157.082C64.0735 157.082 60.3001 155.268 58.8195 155.412C58.8195 155.412 61.16 159.377 60.3957 159.28C59.6314 159.186 57.0042 155.174 57.0042 155.174C57.0042 155.174 53.1353 154.456 52.5143 156.748C51.8933 159.042 52.8964 160.188 53.4697 160.332C54.0427 160.476 57.7208 160.426 57.6252 160.904C57.5297 161.382 55.0459 162.146 53.6606 161.716C53.6606 161.716 55.1892 165.49 57.1953 165.3C59.2014 165.109 59.8224 163.867 61.0642 163.77C62.3063 163.676 63.2139 164.01 62.5929 164.344C61.9719 164.678 59.8702 164.453 58.867 165.306C57.8641 166.159 57.052 166.684 58.9148 167.067C60.7778 167.448 64.1213 167.21 64.7901 165.777C65.4588 164.344 65.4589 164.344 65.4589 164.344Z" fill="#838BE8"/>
<path d="M54.2812 157.466C54.2812 157.466 64.3121 160.713 65.4585 164.344C65.4585 164.344 65.4106 165.968 66.4139 167.832V168.547C66.4139 168.547 65.363 166.111 64.7898 165.777C64.7898 165.777 67.0347 162.624 54.2812 157.466Z" fill="#838BE8"/>
<path d="M66.414 167.832C66.414 167.832 67.9607 170.179 67.0789 173.039L66.6809 172.932C66.6809 172.932 67.0672 169.783 66.2578 168.199C65.4485 166.614 66.414 167.832 66.414 167.832" fill="#838BE8"/>
<path d="M71.1583 161.576C71.1583 161.576 66.4359 158.932 68.6397 155.344C68.6397 155.344 70.4026 153.14 72.2917 152.574C72.2917 152.574 71.2842 157.925 72.2917 158.05C73.2992 158.177 72.9842 152.006 72.9842 152.006C72.9842 152.006 77.9584 149.613 79.9102 149.802C79.9102 149.802 76.8251 155.028 77.8324 154.903C78.8398 154.776 82.3028 149.488 82.3028 149.488C82.3028 149.488 87.4029 148.543 88.2215 151.565C89.04 154.587 87.7178 156.098 86.9623 156.289C86.2066 156.478 81.3585 156.414 81.4844 157.043C81.6103 157.673 84.8844 158.682 86.7103 158.114C86.7103 158.114 84.6954 163.087 82.0511 162.837C79.4065 162.585 78.5881 160.947 76.951 160.822C75.3139 160.695 74.1176 161.136 74.936 161.576C75.7547 162.017 78.5251 161.722 79.8473 162.845C81.1695 163.969 82.2399 164.662 79.7843 165.166C77.3286 165.669 72.9213 165.355 72.0397 163.467C71.1583 161.576 71.1583 161.576 71.1583 161.576" fill="#ACB2F0"/>
<path d="M85.892 152.51C85.892 152.51 72.6697 156.791 71.1587 161.576C71.1587 161.576 71.2216 163.717 69.8994 166.173V167.118C69.8994 167.118 71.2845 163.907 72.04 163.467C72.04 163.467 69.0808 159.311 85.892 152.51" fill="#ACB2F0"/>
<path d="M69.899 166.173C69.899 166.173 67.8597 169.271 69.0223 173.039L69.5468 172.898C69.5468 172.898 69.0375 168.746 70.1044 166.659C71.1713 164.57 69.899 166.173 69.899 166.173" fill="#ACB2F0"/>
<path d="M70.9991 181.213C76.108 181.213 80.2494 177.072 80.2494 171.963H61.749C61.749 177.072 65.8904 181.213 70.9991 181.213" fill="#ACB2F0"/>
<path d="M73.275 181.141C72.8988 181.189 72.5152 181.213 72.1257 181.213C67.017 181.213 62.876 177.072 62.876 171.963H65.174C65.174 176.682 68.7084 180.576 73.275 181.141" fill="#D6D8F7"/>
<path d="M73.7233 181.687H67.8477V180.631H73.7233V181.687Z" fill="#ACB2F0"/>
<path d="M128.226 121.521L128.088 123.057C128.088 123.057 127.987 123.063 127.811 123.059C127.255 123.055 125.903 123.057 124.369 122.982C122.907 122.923 121.268 122.803 119.979 122.569C119.235 122.432 118.608 122.259 118.199 122.04C116.49 121.126 113.603 118.198 111.661 115.215C111.606 115.142 111.564 115.069 111.522 114.995C110.867 113.974 110.327 112.948 109.994 112.004C109.81 111.485 109.69 110.991 109.645 110.531C109.561 109.74 109.61 109.054 109.74 108.454C109.907 107.66 110.225 107.023 110.563 106.535C110.609 106.458 110.654 106.378 110.726 106.311C111.29 105.558 111.864 105.221 111.864 105.221C112.1 105.107 112.361 105.168 112.639 105.373C112.67 105.393 112.701 105.42 112.732 105.444L112.737 105.448C112.777 105.481 112.817 105.518 112.857 105.556L112.857 105.568C112.961 105.664 113.068 105.78 113.178 105.912L113.181 105.914C113.383 106.156 113.593 106.456 113.801 106.804L113.828 106.84C113.897 106.948 113.968 107.07 114.052 107.204C114.078 107.229 114.093 107.265 114.107 107.29C114.262 107.573 114.419 107.866 114.576 108.173C116.32 111.457 118.267 116.475 119.728 117.919C120.068 118.255 121.038 118.737 122.206 119.242L122.207 119.244C122.228 119.252 122.251 119.262 122.274 119.272L122.281 119.274C123.255 119.694 124.36 120.127 125.35 120.499C126.937 121.089 128.226 121.521 128.226 121.521" fill="#FECECC"/>
<path d="M122.266 119.297C122.203 119.47 121.917 120.275 121.43 121.112C121.033 121.787 120.921 122.335 120.267 122.715C119.55 122.721 118.382 122.284 117.953 122.105C116.503 121.5 115.612 120.79 114.898 119.948C114.053 118.957 113.453 117.783 112.467 116.395C112.187 116.007 111.92 115.61 111.662 115.215C111.607 115.144 111.564 115.071 111.521 114.995C110.867 113.974 110.327 112.948 109.995 112.004C109.995 112.004 110.561 104.144 113.427 104.972C116.13 105.758 118.268 116.475 119.729 117.919C120.068 118.255 121.038 118.737 122.206 119.242L122.208 119.244C122.235 119.278 122.254 119.297 122.266 119.297Z" fill="#B9CEFB"/>
<path d="M116.796 178.918L115.129 179.539C115.129 179.539 107.888 169.497 106.997 160.661C106.838 159.084 106.891 157.556 107.235 156.146C107.235 156.146 107.164 155.741 107.04 155.027C106.983 154.693 106.913 154.292 106.832 153.832C106.597 152.483 106.273 150.638 105.903 148.536C105.051 143.701 103.947 137.52 103.09 132.974L103.539 132.832L108.399 131.263L109.403 128.073L113.022 127.12C113.022 127.12 113.83 128.701 114.553 136.173C114.686 137.151 114.807 138.232 114.898 139.404C115.18 142.981 115.201 147.417 114.554 152.489C114.388 153.787 114.178 155.128 113.919 156.506C113.728 157.515 113.699 158.89 113.78 160.471C114.144 167.693 116.796 178.918 116.796 178.918" fill="#F99746"/>
<path d="M114.898 139.664L107.04 155.027C106.983 154.699 106.913 154.304 106.832 153.85C106.597 152.524 106.273 150.711 105.903 148.644C105.051 143.888 103.947 137.811 103.09 133.342L103.539 133.2L108.399 131.66L109.403 128.522L113.022 127.586C113.022 127.586 113.83 129.141 114.553 136.486C114.686 137.449 114.807 138.513 114.898 139.664Z" fill="#ED7D2B"/>
<path d="M111.442 129.125L111.26 127.566C108.212 128.376 100.069 125.303 100.069 125.303C100.069 125.303 97.1169 127.9 97.5045 134.12C97.6937 137.156 98.0392 150.058 98.4002 153.877C98.5306 155.261 98.645 156.245 98.6916 156.638L98.6926 156.642C98.707 156.762 98.6651 156.876 98.6041 156.98C98.0726 157.881 97.6327 158.821 97.2717 159.782C93.7289 169.223 97.8175 180.849 97.8175 180.849L98.8784 180.422C98.8784 180.422 101.205 167.483 103.095 161.768C103.416 160.797 103.724 160.036 104.006 159.58C104.828 158.254 105.591 156.087 106.283 153.509C107.592 148.633 108.645 142.293 109.346 137.398C109.442 137.404 111.442 129.125 111.442 129.125" fill="#F99746"/>
<path d="M109.297 109.917C104.193 111.136 103.929 103.247 104.251 103.229C104.821 102.783 105.663 100.978 105.831 98.1825L106.072 98.2456L110.11 99.3179C110.11 99.3179 109.935 100.6 109.854 101.81C109.791 102.759 109.787 103.664 109.968 103.884C110.283 103.951 110.472 103.994 110.472 103.994L110.474 103.998C110.529 104.085 110.658 109.591 109.297 109.917Z" fill="#FECECC"/>
<path d="M105.652 88.139C105.603 87.9152 104.992 85.5387 101.301 86.0799C101.301 86.0799 103.144 85.968 103.6 86.7046C103.6 86.7046 102.193 85.9476 101.25 86.4441C100.308 86.9406 100.039 88.8003 100.137 89.3782C100.236 89.9561 101.13 91.712 101.793 91.7547C102.045 91.771 102.319 91.7039 102.562 91.6164C102.442 91.9114 102.329 92.2309 102.23 92.5849C101.312 95.8567 103.355 98.5182 104.536 97.9688C105.293 97.6168 105.764 98.9312 105.764 98.9312L112.349 91.2766C112.349 91.2766 108.446 85.9232 105.652 88.139" fill="#2C3A64"/>
<path d="M110.801 100.514C110.801 100.514 105.38 100.256 105.593 96.8844C105.806 93.5108 105.25 91.2055 108.72 91.2279C112.189 91.2503 112.78 92.5789 112.983 93.7224C113.186 94.866 112.216 100.496 110.801 100.514" fill="#FECECC"/>
<path d="M112.942 91.8361C112.17 90.7679 111.523 90.9511 111.149 91.2339C108.294 89.4148 106.233 91.6998 106.233 91.6998C105.715 94.0967 103.881 95.3705 103.881 95.3705C103.881 95.3705 104.829 96.044 107.142 95.6045C107.848 95.4702 108.5 95.0164 109.066 94.4508C108.046 95.9361 106.722 96.9657 106.722 96.9657C109.52 95.8853 110.854 92.1739 110.988 91.7833C111.3 92.1007 111.91 92.7864 112.068 93.4314C112.283 94.3083 112.291 96.0847 112.81 96.0562C112.81 96.0562 114.1 93.4395 112.942 91.8361" fill="#2C3A64"/>
<path d="M103.986 181.716H95.59C95.59 181.716 95.3888 180.436 95.8273 179.466C96.2475 178.534 96.9057 178.11 96.7482 176.983C97.2815 177.533 98.1511 178.149 99.3649 177.984C99.5134 178.226 100.325 179.516 100.822 179.873C101.37 180.267 103.817 180.127 103.986 181.716Z" fill="#233862"/>
<path d="M122.012 181.716H113.616C113.616 181.716 113.303 180.377 113.854 179.466C114.342 178.66 114.155 178.2 113.793 177.533C114.174 177.689 114.666 177.832 115.207 177.799C115.626 177.777 116.068 177.586 116.456 177.36C116.817 177.773 118.364 179.527 118.848 179.873C119.397 180.267 121.843 180.127 122.012 181.716Z" fill="#233862"/>
<path d="M113.427 104.974L115.379 123.409L116.575 134.698C115.373 135.326 114.217 135.857 113.109 136.303C112.864 135.383 112.359 134.321 112.359 134.321C112.479 134.905 111.997 136.15 111.702 136.834C101.432 140.452 95.6347 136.738 95.6347 136.738C95.3038 132.579 95.5842 123.995 96.4587 116.68C96.6412 115.158 96.8486 113.693 97.0822 112.334C97.6124 109.241 98.0094 107.605 98.3663 106.327C99.0457 103.9 103.92 103.159 103.92 103.159C105.466 106.356 108.415 107.988 108.415 107.988C109.637 106.934 110.142 103.924 110.142 103.924L113.427 104.974" fill="#B9CEFB"/>
<path d="M104.877 102.341C104.877 102.341 104.007 102.561 103.921 103.159C103.921 103.159 105.91 107.573 108.414 107.986L104.877 102.341" fill="#95B5FA"/>
<path d="M108.414 107.986C108.414 107.986 109.945 103.937 109.837 103.391C109.837 103.391 110.807 103.579 110.853 104.15C110.853 104.15 109.512 107.526 108.414 107.986Z" fill="#95B5FA"/>
<path d="M104.966 111.414C105.069 111.622 110.183 120.788 115.38 123.409C117.67 124.565 109.912 123.035 109.797 122.715C109.683 122.398 104.966 111.414 104.966 111.414Z" fill="#95B5FA"/>
<path d="M115.379 123.409L116.195 131.108C103.09 131.108 101.692 113.111 101.692 113.111L108.984 121.069L115.303 123.336C115.303 123.336 115.33 123.36 115.379 123.409Z" fill="#95B5FA"/>
<path d="M120.396 125.334L120.173 126.992C120.173 126.992 119.609 126.966 118.712 126.921C118.443 126.905 118.288 126.888 118.288 126.888C117.569 126.846 116.707 126.77 115.767 126.693H115.754C114.141 126.528 112.331 126.315 110.788 126.011C110.65 125.983 110.513 125.954 110.38 125.924C109.465 125.72 108.665 125.482 108.085 125.216C108.017 125.187 107.962 125.155 107.893 125.114C106.288 124.247 104.13 121.356 102.33 118.186C102.08 117.748 101.843 117.309 101.608 116.884C100.758 115.292 100.036 113.709 99.5444 112.324C99.2429 111.498 99.0142 110.739 98.9033 110.106C98.8609 109.882 98.819 109.671 98.8056 109.469C98.3431 105.841 100.857 105.121 101.249 105.489C101.743 105.945 102.305 106.722 102.904 107.672C103.833 109.188 104.863 111.176 105.842 113.158C106.383 114.245 106.911 115.331 107.427 116.33C107.725 116.941 108.018 117.51 108.292 118.035C108.821 119.034 109.284 119.836 109.669 120.332C109.916 120.656 110.556 121.065 111.393 121.515C111.615 121.633 111.852 121.755 112.1 121.881C113.48 122.569 115.219 123.311 116.757 123.924C117.511 124.231 118.223 124.504 118.813 124.73C119.766 125.1 120.396 125.334 120.396 125.334" fill="#FECECC"/>
<path d="M112.1 121.881C112.1 121.881 112.598 124.89 109.965 126.742C106.535 125.999 104.13 121.356 102.33 118.186C102.08 117.748 101.843 117.309 101.608 116.884C100.758 115.292 100.036 113.709 99.5444 112.324C99.2429 111.498 99.0142 110.739 98.9033 110.106C98.8609 109.882 98.819 109.671 98.8056 109.469C98.3431 105.841 100.857 105.121 101.249 105.489C101.743 105.945 102.305 106.722 102.904 107.672C103.833 109.188 104.863 111.176 105.842 113.158C106.383 114.245 106.911 115.331 107.427 116.33C107.725 116.941 108.018 117.51 108.292 118.035C108.821 119.034 109.284 119.836 109.669 120.333C109.916 120.656 110.556 121.065 111.393 121.515C111.615 121.633 111.852 121.755 112.1 121.881" fill="#B9CEFB"/>
<path d="M132.46 130.065L121.841 130.13L128.881 118.528L139.5 118.463L132.46 130.065" fill="#2632AE"/>
<path d="M126.495 126.398C125.801 126.363 124.686 126.081 124.064 125.808C124.064 125.808 124.403 125.637 124.612 125.564L125.005 124.917C124.719 124.957 124.449 125.139 123.305 125.114C122.844 125.106 121.856 125.639 121.913 125.672C121.105 125.527 120.373 125.334 120.136 125.271C120.074 125.257 120.049 125.242 120.049 125.242L118.954 126.933C118.954 126.933 119.701 127.019 119.963 127.082C120.624 127.277 121.661 127.892 122.983 128.333C123.74 128.585 125.121 128.162 125.942 127.859C126.611 127.611 127.029 127.153 127.208 126.809C127.454 126.339 126.918 126.42 126.495 126.398" fill="#FECECC"/>
<path d="M120.266 122.715C119.55 122.721 118.382 122.284 117.952 122.105C116.502 121.5 115.612 120.79 114.898 119.948L114.441 114.542C114.503 114.953 115.566 121.527 120.266 122.715Z" fill="#95B5FA"/>
</svg>
