<svg width="202" height="148" viewBox="0 0 202 148" fill="none" xmlns="http://www.w3.org/2000/svg">
<path d="M2.47372 132.995C2.1423 132.995 1.58003 124.396 1.5248 123.695C-0.110908 102.94 -0.0958886 80.1944 3.85837 60.5899C6.53972 47.2951 11.2777 36.6983 16.9511 28.9436C23.2226 20.371 30.4551 16.7052 37.8292 15.9999C46.3148 15.1881 54.738 17.7556 63.1993 18.5283C71.8674 19.3191 80.4422 16.5311 88.9088 12.8143C96.4434 9.50861 103.932 5.65372 111.544 3.21985C118.982 0.760468 126.732 -0.803101 134.257 0.431839C140.398 1.43871 146.28 5.16754 151.473 12.3206C156.27 18.929 160.27 27.9967 165.331 33.7513C168.133 36.9369 171.185 38.8861 174.338 39.6214C177.352 40.3251 180.332 39.932 183.305 41.4746C187.963 43.8919 192.09 49.561 195.113 57.4973C200.999 72.9453 202.723 95.1518 200.672 114.312C199.962 120.936 198.765 127.388 196.954 132.995C192.596 132.995 3.28958 132.995 2.47372 132.995Z" fill="#DCE6FD"/>
<path d="M75.2436 41.34C74.5414 39.6221 72.8563 38.4104 70.8868 38.4104C69.4631 38.4104 68.1902 39.0454 67.3267 40.0447C66.1421 37.3483 63.4534 35.4634 60.3214 35.4634C59.2158 35.4634 58.1677 35.7027 57.2187 36.125C55.6289 33.59 52.819 31.8992 49.6076 31.8992C44.9431 31.8992 41.1099 35.4553 40.6641 40.0061C39.8016 39.0296 38.5442 38.4104 37.1393 38.4104C35.1697 38.4104 33.4847 39.6221 32.7822 41.34H75.2436Z" fill="#5965E1"/>
<path d="M59.2729 62.8043C59.2729 62.8043 63.6343 63.8696 65.241 67.2442C66.8475 70.6184 73.0766 72.7733 73.0766 72.7733C73.0766 72.7733 73.883 78.4772 73.0766 78.3779C72.2702 78.2782 61.2363 75.3455 59.745 73.4293C58.254 71.5135 59.2729 62.8043 59.2729 62.8043Z" fill="#ACB2F0"/>
<path d="M93.2907 14.7187C93.2907 14.7187 99.9684 16.8581 109.146 16.7914C112.995 16.7636 111.966 17.1283 112.392 19.1168C112.818 21.1053 107.598 23.0899 102.985 22.9477C98.3714 22.8056 92.7681 22.4872 91.9164 20.7827C91.0645 19.0779 93.2907 14.7187 93.2907 14.7187Z" fill="#1D2582"/>
<path d="M80.6979 30.6429C80.6979 30.6429 74.4731 20.4763 76.7579 18.5457C80.8091 15.123 90.8993 13.3002 93.7734 14.9335C94.6507 15.4319 94.181 19.0691 93.9155 19.8834C90.1715 31.3723 99.7906 31.3885 91.9165 32.3109C84.042 33.233 80.6979 30.6429 80.6979 30.6429Z" fill="#1D2582"/>
<path d="M83.2261 12.011L81.5386 15.9971C81.5386 15.9971 82.5505 17.4931 84.1243 17.0024C85.6985 16.512 86.1268 15.2034 86.1268 15.2034L83.2261 12.011Z" fill="#FAB590"/>
<path d="M83.3768 12.21C83.3768 12.21 83.0668 12.1973 82.9847 12.0267C82.9026 11.8561 83.32 10.1102 83.4877 10.0344C83.6557 9.95823 83.9777 9.97614 84.1103 10.2587C84.2432 10.5413 83.3768 12.21 83.3768 12.21Z" fill="#FCD2B4"/>
<path d="M89.9686 10.2205C89.9686 10.2205 90.0341 11.3753 89.8325 12.0243C89.6311 12.6737 88.7146 12.9074 88.0226 14.7717C87.8816 15.1518 86.3488 16.5492 85.6984 16.512C84.7696 16.4586 83.9619 16.0272 83.7233 15.8145C83.4848 15.6014 82.823 15.1936 83.1355 12.4118C83.2333 11.5403 85.0117 7.37518 85.3516 7.29725C85.6918 7.21968 90.1162 8.09299 89.9686 10.2205Z" fill="#FCD2B4"/>
<path d="M85.3516 7.29737C85.3516 7.29737 84.9661 7.00673 84.3916 7.84143C83.998 8.41218 83.6806 10.7531 83.662 10.9205C83.6434 11.0886 83.5908 11.4158 83.5908 11.4158C83.5908 11.4158 83.9111 11.2704 84.0871 11.0605C84.2636 10.851 84.508 9.4445 85.2622 8.79267C86.0167 8.14085 86.527 7.92848 86.1668 7.52517C85.8065 7.12151 85.3516 7.29737 85.3516 7.29737Z" fill="#1D2582"/>
<path d="M89.3889 7.84696C88.3601 6.835 86.6744 6.7104 85.9644 6.88801C85.2548 7.06562 85.1128 7.79045 85.1128 7.79045L85.7438 8.18007C85.4625 8.34118 85.3075 8.55109 85.2622 8.79259C84.7463 11.5694 87.9816 12.601 89.7673 12.6281C90.915 12.6453 91.1279 11.6645 91.1279 11.6645C91.1279 11.6645 90.418 8.85892 89.3889 7.84696Z" fill="#1D2582"/>
<path d="M84.124 10.085C84.124 10.085 85.3159 10.2749 85.8711 9.51461C86.4264 8.75398 85.2454 8.19833 85.1125 8.2566C84.9795 8.31522 84.124 10.085 84.124 10.085Z" fill="#1D2582"/>
<path d="M35.2661 121.191H176.972C176.972 121.191 175.788 113.07 168.422 113.421C161.056 113.772 164.416 104.749 155.137 96.178C148.297 89.8598 133.648 89.7411 125.165 98.0366C116.683 106.331 76.9693 95.5637 65.4129 101.882C53.8562 108.2 58.416 114.167 49.9979 113.114C41.5797 112.061 35.9676 116.982 35.2661 121.191Z" fill="#5965E1"/>
<path d="M109.146 16.7914V17.8227C109.146 17.8227 110.176 18.8901 110.682 18.995C111.189 19.0996 112.498 19.1172 112.498 19.1172C112.498 19.1172 112.707 18.6103 112.288 18.4882C111.869 18.3657 111.171 18.1105 111.171 18.1105L111.031 17.8227H115.03C115.03 17.8227 115.03 17.5271 114.82 17.4401C114.611 17.3523 112.847 16.8107 112.585 16.776C112.323 16.7409 109.146 16.7914 109.146 16.7914Z" fill="#FCD2B4"/>
<path d="M77.4915 124.913C77.4915 126.202 69.3936 127.245 59.4043 127.245C49.4148 127.245 41.3169 126.202 41.3169 124.913C41.3169 123.625 49.4148 122.581 59.4043 122.581C69.3936 122.581 77.4915 123.625 77.4915 124.913Z" fill="#5965E1"/>
<path d="M167.557 124.913C167.557 126.202 159.459 127.245 149.47 127.245C139.481 127.245 131.383 126.202 131.383 124.913C131.383 123.625 139.481 122.581 149.47 122.581C159.459 122.581 167.557 123.625 167.557 124.913Z" fill="#5965E1"/>
<path d="M153.465 12.6281C153.465 14.5331 151.922 16.0771 150.019 16.0771C148.115 16.0771 146.572 14.5331 146.572 12.6281C146.572 10.7235 148.115 9.17945 150.019 9.17945C151.922 9.17945 153.465 10.7235 153.465 12.6281Z" fill="#303ED9"/>
<path d="M163.66 16.7553C162.236 16.7553 160.963 17.3903 160.1 18.3892C158.915 15.6931 156.226 13.8082 153.095 13.8082C151.989 13.8082 150.941 14.0472 149.992 14.4695C148.402 11.9345 145.592 10.2437 142.381 10.2437C137.716 10.2437 133.883 13.8001 133.437 18.3506C132.575 17.3741 131.317 16.7553 129.912 16.7553C127.943 16.7553 126.258 17.9666 125.556 19.6844H168.017C167.314 17.9666 165.63 16.7553 163.66 16.7553Z" fill="#5965E1"/>
<path d="M140.313 120.488V26.0848C140.313 25.6966 139.999 25.3821 139.611 25.3821H70.0445C69.6566 25.3821 69.3423 25.6966 69.3423 26.0848V120.488C69.3423 120.876 69.6566 121.191 70.0445 121.191H139.611C139.999 121.191 140.313 120.876 140.313 120.488Z" fill="#729DF8"/>
<path d="M73.687 117.67V29.7296H136.795V117.67H73.687Z" fill="#729DF8"/>
<path d="M73.687 116.843V29.7296H135.969V116.843H73.687Z" fill="white"/>
<path d="M104.825 22.5252C104.214 22.5252 103.716 22.0306 103.716 21.4163C103.716 20.802 104.214 20.3036 104.825 20.3036C105.438 20.3036 105.937 20.802 105.937 21.4163C105.937 22.0306 105.438 22.5252 104.825 22.5252ZM117.259 25.3827L117.143 24.7965L117.087 24.5192L116.905 23.5961L116.087 19.4752C115.884 18.4464 115.337 17.7553 114.723 17.7553H94.9333C94.3195 17.7553 93.7723 18.4464 93.5654 19.4752L92.7481 23.5961L92.5657 24.5192L92.5096 24.7965L92.3938 25.3827L92.0957 26.8885H117.561L117.259 25.3827Z" fill="#729DF8"/>
<path d="M117.259 25.3827H92.394L92.5098 24.7965L92.5659 24.5192H117.087L117.143 24.7965L117.259 25.3827Z" fill="#729DF8"/>
<path d="M116.683 61.3142H80.437V55.2396H116.683V61.3142Z" fill="#5965E1"/>
<path d="M128.221 61.3539H122.11V55.2396H128.221V61.3539Z" fill="#5965E1"/>
<path d="M116.683 76.3199H80.437V70.2457H116.683V76.3199Z" fill="#5965E1"/>
<path d="M128.221 76.3599H122.11V70.2456H128.221V76.3599Z" fill="#5965E1"/>
<path d="M116.683 91.3256H80.437V85.2513H116.683V91.3256Z" fill="#5965E1"/>
<path d="M128.221 91.3656H122.11V85.2514H128.221V91.3656Z" fill="#5965E1"/>
<path d="M116.683 106.331H80.437V100.257H116.683V106.331Z" fill="#5965E1"/>
<path d="M128.221 106.372H122.11V100.257H128.221V106.372Z" fill="#5965E1"/>
<path d="M118.427 39.9205L82.8409 46.8108L81.688 40.8471L117.274 33.9568L118.427 39.9205Z" fill="#5965E1"/>
<path d="M80.6318 18.8279C79.9892 17.5804 77.2266 17.2055 75.9457 19.558C73.2171 24.5697 75.1214 30.8303 76.6104 33.9719C78.5381 38.0401 88.2614 40.3838 88.2614 40.3838C88.2614 40.3838 89.2551 36.9035 89.1843 36.6196C89.1131 36.3356 80.9513 33.7311 81.8454 25.2131C82.1491 22.3219 81.3642 20.2495 80.6318 18.8279Z" fill="#1D2582"/>
<path d="M88.4614 39.6702C88.4614 39.6702 89.1486 40.1353 90.0356 40.3838C90.9227 40.6323 92.8743 40.0791 92.9455 39.9121C93.0163 39.7446 92.8964 37.3792 92.5481 37.2124C92.2001 37.0457 89.184 36.6196 89.184 36.6196L88.4614 39.6702Z" fill="#FCD2B4"/>
<path d="M159.234 108.434H139.705C139.128 108.434 138.655 107.961 138.655 107.383C138.655 106.804 139.128 106.331 139.705 106.331H159.234C159.812 106.331 160.285 106.804 160.285 107.383C160.285 107.961 159.812 108.434 159.234 108.434Z" fill="#5965E1"/>
<path d="M143.913 123.995H141.896V108.434H143.913V123.995Z" fill="#1D2582"/>
<path d="M157.154 123.995H155.137V108.434H157.154V123.995Z" fill="#1D2582"/>
<path d="M42.8711 80.168C42.8711 80.168 44.3624 81.6233 45.5923 81.6977C46.8226 81.7724 47.9782 80.704 47.9782 80.704L46.1515 79.1609L42.8711 80.168Z" fill="#FAB391"/>
<path d="M64.5285 122.108C64.0722 122.073 63.9769 122.45 62.5961 122.021C62.5723 122.015 62.5483 122.01 62.5245 122C62.5245 122 58.7669 102.499 56.2623 93.34C55.2841 103.653 53.8904 122 53.8904 122C53.8666 122.01 53.8458 122.015 53.8219 122.021C52.4411 122.45 52.3427 122.073 51.8864 122.108C51.6658 122.124 49.1259 101.546 50.3158 87.8207L62.0478 87.3307C63.9296 101.046 64.7642 122.124 64.5285 122.108Z" fill="#1D2582"/>
<path d="M62.554 121.523C62.554 121.523 62.4891 123.22 62.6444 123.758C62.7999 124.295 64.0433 124.371 64.3899 124.524C64.7365 124.676 65.4966 125.047 67.3289 125.263C67.846 125.323 67.9147 124.952 67.2939 124.636C65.2311 123.584 64.5671 121.799 64.5671 121.799L62.554 121.523Z" fill="#0A0C2B"/>
<path d="M53.8918 121.523C53.8918 121.523 53.9565 123.22 53.8012 123.758C53.6459 124.295 52.4024 124.371 52.0558 124.524C51.7092 124.676 50.9489 125.047 49.117 125.263C48.5997 125.323 48.531 124.952 49.1518 124.636C51.2148 123.584 51.8787 121.799 51.8787 121.799L53.8918 121.523Z" fill="#0A0C2B"/>
<path d="M63.305 86.8372C63.2812 87.2731 62.9203 87.5209 62.4997 87.6463C60.9878 88.0938 56.5443 88.4848 53.3623 88.5417C51.403 88.5771 49.921 88.488 49.8942 88.2103C49.7211 86.4135 49.5125 84.5542 49.2887 82.7012C48.1884 73.6315 46.6533 64.6397 47.4577 64.1865C50.987 62.197 55.4099 62.4129 59.2728 62.8042C60.7971 62.9583 62.6277 67.2442 62.5284 71.5935C62.403 77.0763 63.468 83.6879 63.305 86.8372Z" fill="#ACB2F0"/>
<path d="M53.1755 59.1454C53.1755 59.1454 52.8597 59.2275 52.7253 59.0811C52.591 58.9348 52.4778 57.0523 52.6232 56.9245C52.7684 56.7968 53.0978 56.7167 53.3175 56.96C53.537 57.2036 53.1755 59.1454 53.1755 59.1454Z" fill="#FCD2B4"/>
<path d="M54.5512 64.2767C54.1236 64.1426 53.7918 63.8492 53.594 63.6347C53.4609 63.4905 53.3976 63.2964 53.4192 63.1015L53.7725 59.9246L57.7273 59.6725L57.7944 63.2198C57.2343 64.3308 55.64 64.6179 54.5512 64.2767Z" fill="#FAB590"/>
<path d="M59.1939 55.1316C59.1939 55.1316 59.6514 55.7497 59.2173 56.9091C58.5402 58.7182 59.0994 58.2994 58.6268 60.3009C58.5291 60.7151 57.6951 62.2869 56.9724 62.6993C56.1234 63.1834 54.9281 62.8032 54.6237 62.6621C54.3191 62.5214 53.5295 62.3136 52.9945 59.422C52.827 58.5164 53.3434 53.7861 53.6617 53.6043C53.9797 53.4221 58.6935 52.9483 59.1939 55.1316Z" fill="#FCD2B4"/>
<path d="M53.6615 53.6043C53.6615 53.6043 53.2534 53.5685 53.1876 54.2937C53.1218 55.0192 53.0361 57.5883 53.0687 57.7624C53.1013 57.9365 53.0872 58.2994 53.0872 58.2994C53.0872 58.2994 53.3128 58.3019 53.4259 58.0376C53.5389 57.7729 53.4686 56.02 54.028 55.1344C54.5872 54.2488 55.0352 53.8792 54.5502 53.584C54.0652 53.2884 53.6615 53.6043 53.6615 53.6043Z" fill="#1D2582"/>
<path d="M31.7778 74.9724L34.2731 67.9315L67.7361 79.9368L65.2405 86.9777L31.7778 74.9724Z" fill="#5965E1"/>
<path d="M32.4849 72.9775L33.5663 69.9262L67.029 81.9315L65.9476 84.9828L32.4849 72.9775Z" fill="#303ED9"/>
<path d="M65.2412 86.9777L67.7365 79.9368L71.9985 83.4311L73.7976 84.9064L76.2606 86.9254L73.0768 86.9401L70.7509 86.9517L65.2412 86.9777Z" fill="#FAB391"/>
<path d="M73.0767 86.9401L73.7975 84.9063L76.2605 86.9253L73.0767 86.9401Z" fill="#1D2582"/>
<path d="M33.0625 75.4283L30.4701 74.5087C29.4131 74.1335 28.8595 72.9713 29.2346 71.9123L30.5002 68.3408C30.5123 68.3085 30.524 68.2762 30.5372 68.246C30.8744 67.4502 31.7779 67.0473 32.6032 67.3393L35.5574 68.3874L33.7702 73.4293L33.0625 75.4283Z" fill="#ACB2F0"/>
<path d="M33.7703 73.4293L31.1817 72.5114C30.1246 72.1362 29.5708 70.974 29.9461 69.9147L30.5373 68.246C30.8745 67.4502 31.778 67.0473 32.6033 67.3393L35.5575 68.3874L33.7703 73.4293Z" fill="#F3EEF8"/>
<path d="M47.4577 64.1865C47.4577 64.1865 37.4165 71.7206 37.4971 73.8253C37.5775 75.9299 39.2255 78.9089 41.9016 80.4811C41.9016 80.4811 43.8621 81.3032 45.2062 79.7896C45.2062 79.7896 42.9645 75.6126 43.3182 75.2588C44.0141 74.5624 50.3639 71.6841 50.3639 71.6841C50.3639 71.6841 52.5666 64.3799 47.4577 64.1865Z" fill="#ACB2F0"/>
<path d="M53.7375 54.7268C53.7375 54.7268 53.8352 56.7826 55.4036 56.0164C55.8914 55.778 56.483 55.9248 56.7951 56.3695C57.4096 57.2453 57.8196 57.7297 58.6393 57.1516C59.4595 56.5734 59.1726 57.9199 60.2238 57.4029C60.8924 57.074 60.7428 56.3856 60.3328 55.9686C60.216 55.85 60.1634 55.6815 60.1754 55.5151C60.2219 54.8693 60.184 53.3642 58.863 53.1227C58.6677 53.0872 58.4899 53.097 58.3352 53.1293C57.9592 53.208 57.5739 53.0798 57.3481 52.7688C56.9293 52.1918 56.1014 51.5027 54.6506 51.8843C51.4124 52.7358 52.7531 56.4674 53.0686 57.7623C53.2807 58.6321 53.7375 54.7268 53.7375 54.7268Z" fill="#1D2582"/>
<path d="M146.911 47.9847C146.911 47.9847 145.456 51.6419 146.988 53.1456C148.521 54.649 151.248 52.7602 151.478 52.5292C151.709 52.2982 146.911 47.9847 146.911 47.9847Z" fill="#FCD2B4"/>
<path d="M146.823 74.2795C146.823 74.2795 141.451 73.005 141.592 74.4722C142.973 88.8913 144.623 106.257 144.794 106.373C145.42 106.798 146.045 106.192 146.066 106.182C146.066 106.182 148.316 78.2951 146.823 74.2795Z" fill="#FAB391"/>
<path d="M154.307 75.0661C154.307 75.0661 149.204 72.9586 149.112 74.4301C148.2 88.8864 147.088 106.294 147.239 106.436C147.79 106.955 148.503 106.455 148.525 106.449C148.525 106.449 155.148 79.2673 154.307 75.0661Z" fill="#FAB391"/>
<path d="M153.679 55.7599C152.813 55.3566 151.705 54.9294 150.363 54.5826C150.511 54.4889 146.487 54.7476 146.849 54.6668C145.333 55.0628 144.226 55.5612 143.376 56.0109C142.893 56.2664 144.023 56.7876 144.089 57.3307L146.604 68.6276L142.618 72.0046C142.618 72.4795 143.394 72.8671 144.004 72.8657L146.835 72.8586C147.852 72.774 148.371 72.3595 148.561 71.9569C148.82 72.2788 149.32 72.5655 150.148 72.6322H152.979C153.589 72.6322 153.221 73.9271 153.221 73.4522L151.085 68.5468L153.866 57.7357C153.987 56.9796 154.373 56.0832 153.679 55.7599Z" fill="#303ED9"/>
<path d="M144.987 60.1033C144.987 60.1033 141.589 69.2207 134.101 86.2798C134.101 86.2798 143.206 94.2169 160.475 88.7134C160.475 88.7134 158.187 73.1893 152.053 65.5071L144.987 60.1033Z" fill="#303ED9"/>
<path d="M131.518 49.0759C130.697 47.5483 127.515 47.8305 127.515 47.574C127.515 47.3174 127.566 47.0604 127.874 47.0092C128.182 46.9579 132.852 46.8038 133.006 47.0092C133.16 47.2145 133.485 48.303 133.485 48.303C133.485 48.303 131.768 49.5417 131.518 49.0759Z" fill="#FCD2B4"/>
<path d="M149.516 44.7753C149.516 44.7753 145.218 45.4686 147.066 49.9359C148.994 54.598 148.78 55.4601 147.643 59.5258C146.71 62.8636 146.275 66.7387 149.836 68.0371C153.429 69.3464 160.252 65.8412 158.609 59.6704C157.533 55.6359 156.815 56.4854 155.994 53.0128C155.45 50.7123 155.879 49.0117 154.779 47.0618C153.769 45.2717 152.107 44.3131 149.516 44.7753Z" fill="#1D2582"/>
<path d="M144.622 105.213C144.622 105.213 141.485 105.802 141.408 106.087C141.331 106.373 141.331 106.373 141.331 106.373H146.424C146.424 106.373 146.552 106.216 146.424 105.625C146.296 105.035 146.219 104.907 146.116 104.907C146.014 104.907 144.622 105.213 144.622 105.213Z" fill="#1D2582"/>
<path d="M147.501 105.213C147.501 105.213 144.365 105.802 144.288 106.087C144.211 106.373 144.211 106.373 144.211 106.373H149.304C149.304 106.373 149.432 106.216 149.304 105.625C149.175 105.035 149.099 104.907 148.996 104.907C148.893 104.907 147.501 105.213 147.501 105.213Z" fill="#1D2582"/>
<path d="M144.987 60.1033C144.987 60.1033 135.89 59.1791 134.935 58.1776C133.98 57.1766 131.286 49.0633 131.517 49.0759C131.748 49.0889 133.912 48.0106 134.1 48.1647C134.288 48.3185 137.059 55.405 138.137 55.5591C139.214 55.7128 146.604 54.7325 146.604 54.7325L144.987 60.1033Z" fill="#303ED9"/>
<path d="M133.244 46.8192H127.134V40.705H133.244V46.8192Z" fill="#5965E1"/>
</svg>
